<?xml version="1.0" encoding="utf-8"?>
<!-- Generator: Adobe Illustrator 16.0.0, SVG Export Plug-In . SVG Version: 6.00 Build 0)  -->
<!DOCTYPE svg PUBLIC "-//W3C//DTD SVG 1.1//EN" "http://www.w3.org/Graphics/SVG/1.1/DTD/svg11.dtd">
<svg version="1.1" id="Layer_1" xmlns="http://www.w3.org/2000/svg" xmlns:xlink="http://www.w3.org/1999/xlink" x="0px" y="0px"
	 width="154.594px" height="50px" viewBox="0 0 154.594 50" enable-background="new 0 0 154.594 50" xml:space="preserve">
<g>
	<g>
		<defs>
			<rect id="SVGID_1_" width="154.594" height="50"/>
		</defs>
		<clipPath id="SVGID_2_">
			<use xlink:href="#SVGID_1_"  overflow="visible"/>
		</clipPath>
		<path clip-path="url(#SVGID_2_)" fill-rule="evenodd" clip-rule="evenodd" fill="#CC8D83" d="M28.732,23.091
			c3.375-0.786,8.47-1.755,12.929-1.886c6.203-0.183,13.917,2.175,21.093,4.161c5.314,1.47,10.51,2.278,14.558,2.257
			c5.724-0.031,8.005-1.288,13.799-3.046c5.709-1.732,13.001-3.333,19.625-3.02c5.068,0.238,10.456,1.891,15.318,3.272
			c3.487,0.992,7.101,1.975,10.206,2.638c5.307,1.135,11.406,1.423,16.828,0.827l0.278,1.589
			c-5.472,0.912-11.804,0.485-17.212-0.653c-2.958-0.621-6.698-1.557-10.598-2.639c-6.387-1.775-11.622-3.429-17.76-3.208
			c-8.9,0.322-17.006,3.114-25.418,6.083c-6.474,2.286-12.214,4.037-19.318,2.957l0.136-1.705c2.691,0.271,8.745,0.35,12.771-1.391
			c-4.495-0.123-9.664-1.031-14.396-2.278c-6.883-1.813-13.509-4.028-19.67-3.963c-8.403,0.086-21.29,4.314-26.455,5.524
			C10.282,29.82,4.767,30.829,0,29.959l0.19-1.7c3.966,0.27,7.841,0.225,13.873-1.269C19.01,25.766,23.858,24.227,28.732,23.091"/>
		<path clip-path="url(#SVGID_2_)" fill-rule="evenodd" clip-rule="evenodd" fill="#CC8D83" d="M13.27,13.372
			c0,1.901-0.632,3.303-1.9,4.207c-1.264,0.907-3.027,1.361-5.28,1.361c-1.292,0-2.378-0.077-3.266-0.227
			c-0.887-0.153-1.617-0.344-2.196-0.575v-3.063c0.45,0.276,1.159,0.535,2.128,0.766c0.964,0.235,1.917,0.353,2.853,0.353
			c1.313,0,2.221-0.174,2.715-0.527s0.741-0.937,0.741-1.751c0-0.522-0.178-0.984-0.534-1.386c-0.357-0.404-1.37-0.94-3.039-1.604
			c-1.334-0.539-2.363-1.224-3.088-2.059C1.672,8.032,1.308,6.893,1.308,5.45c0-1.377,0.587-2.541,1.763-3.489
			c1.175-0.952,2.8-1.426,4.87-1.426c1.005,0,1.909,0.081,2.715,0.243c0.803,0.166,1.365,0.312,1.689,0.438v2.699
			c-0.68-0.167-1.357-0.312-2.03-0.441C9.643,3.347,8.926,3.282,8.164,3.282c-1.073,0-1.852,0.17-2.326,0.507
			c-0.474,0.34-0.713,0.762-0.713,1.268c0,0.637,0.178,1.115,0.535,1.438C6.016,6.82,7.062,7.298,8.792,7.935
			c1.617,0.583,2.768,1.325,3.453,2.225C12.93,11.059,13.27,12.129,13.27,13.372 M20.067,1.994c0,0.571-0.195,1.049-0.58,1.435
			c-0.389,0.389-0.859,0.583-1.414,0.583c-0.547,0-1.013-0.194-1.406-0.583c-0.393-0.386-0.588-0.864-0.588-1.435
			c0-0.555,0.195-1.025,0.588-1.41C17.061,0.195,17.527,0,18.074,0c0.555,0,1.025,0.195,1.414,0.583
			C19.873,0.969,20.067,1.438,20.067,1.994 M19.97,18.697h-3.793V5.034h3.793V18.697z M27.785,18.697h-3.793V0.778h3.793V18.697z
			 M44.202,5.033l-5.916,13.664h-2.773L29.995,5.033h3.87l3.478,9.259l3.833-9.259H44.202z M58.957,12.595h-9.288
			c0,1.52,0.345,2.577,1.034,3.169c0.689,0.595,1.584,0.892,2.687,0.892c0.725,0,1.475-0.094,2.236-0.28
			c0.766-0.187,1.553-0.466,2.359-0.839v2.286c-0.698,0.385-1.468,0.676-2.31,0.872c-0.843,0.198-1.815,0.295-2.915,0.295
			c-2.103,0-3.785-0.56-5.032-1.678c-1.252-1.118-1.876-2.755-1.876-4.907v-0.973c0-1.884,0.571-3.476,1.714-4.781
			c1.142-1.305,2.804-1.958,4.98-1.958c2.075,0,3.659,0.612,4.762,1.84c1.098,1.224,1.648,2.825,1.648,4.793v0.564V12.595z
			 M55.433,10.649c-0.082-1.35-0.374-2.313-0.883-2.894c-0.511-0.583-1.18-0.875-2.002-0.875c-0.722,0-1.366,0.288-1.933,0.863
			c-0.567,0.576-0.871,1.544-0.92,2.906H55.433z M72.542,9.19h-3.501c0-0.388-0.081-0.717-0.243-0.996
			c-0.163-0.276-0.483-0.414-0.957-0.414c-0.45,0-0.831,0.122-1.139,0.369c-0.308,0.243-0.51,0.506-0.603,0.782v9.766h-3.793V5.033
			h3.651l0.068,2.167c0.357-0.778,0.819-1.378,1.386-1.799c0.564-0.426,1.232-0.636,1.999-0.636c1.146,0,2.001,0.377,2.568,1.135
			C72.547,6.654,72.733,7.752,72.542,9.19 M87.095,16.817c0,1.95-0.627,3.477-1.887,4.587c-1.257,1.115-2.987,1.67-5.188,1.67
			c-0.649,0-1.402-0.065-2.262-0.194c-0.858-0.13-1.621-0.357-2.286-0.682v-2.625c0.681,0.313,1.399,0.527,2.148,0.648
			c0.753,0.119,1.406,0.178,1.957,0.178c1.52,0,2.554-0.259,3.101-0.778c0.547-0.519,0.818-1.199,0.818-2.038v-1.346
			c-0.214,0.474-0.661,0.977-1.341,1.5c-0.677,0.526-1.667,0.79-2.963,0.79c-1.471,0-2.658-0.506-3.557-1.52
			c-0.905-1.013-1.354-2.694-1.354-5.045v-0.393c0-2.253,0.515-3.935,1.545-5.045c1.024-1.106,2.447-1.662,4.267-1.662
			c0.713,0,1.378,0.114,1.994,0.337c0.616,0.227,1.102,0.567,1.459,1.017V5.033h3.549V16.817z M83.303,11.561v-0.859
			c0-1.365-0.195-2.326-0.58-2.885c-0.385-0.56-1.009-0.839-1.869-0.839c-0.818,0-1.463,0.324-1.928,0.977
			c-0.471,0.648-0.705,1.73-0.705,3.233v0.373c0,1.719,0.214,2.881,0.644,3.485c0.43,0.604,1.062,0.904,1.896,0.904
			c0.827,0,1.459-0.333,1.894-1.001C83.088,14.284,83.303,13.154,83.303,11.561 M95.031,18.697h-3.793V0.778h3.793V18.697z
			 M110.437,18.697h-3.554l-0.07-1.774c-0.291,0.567-0.786,1.033-1.476,1.397c-0.688,0.366-1.49,0.548-2.41,0.548
			c-1.512,0-2.658-0.381-3.437-1.139c-0.774-0.762-1.163-1.912-1.163-3.457v-0.235c0-1.528,0.52-2.707,1.556-3.533
			c1.038-0.827,2.432-1.24,4.183-1.24c0.531,0,1.054,0.077,1.568,0.231c0.52,0.154,0.892,0.344,1.131,0.572V8.712
			c0-0.47-0.215-0.867-0.641-1.196c-0.429-0.328-1.037-0.49-1.819-0.49c-0.839,0-1.588,0.094-2.249,0.28
			c-0.656,0.187-1.229,0.418-1.71,0.693v-2.31c0.624-0.25,1.324-0.47,2.099-0.652c0.771-0.183,1.711-0.271,2.809-0.271
			c1.767,0,3.071,0.396,3.919,1.191c0.842,0.798,1.265,2.066,1.265,3.816V18.697z M106.788,14.126v-0.369
			c0-0.823-0.193-1.447-0.583-1.88c-0.385-0.429-0.961-0.644-1.719-0.644c-0.713,0-1.28,0.202-1.693,0.612
			c-0.417,0.405-0.624,1.048-0.624,1.937v0.368c0,0.925,0.219,1.541,0.66,1.849c0.438,0.308,0.997,0.462,1.678,0.462
			c0.588,0,1.114-0.186,1.581-0.563C106.554,15.52,106.788,14.933,106.788,14.126 M126.145,18.697h-3.652l-0.092-1.872
			c-0.568,0.753-1.151,1.285-1.743,1.596c-0.596,0.313-1.333,0.47-2.221,0.47c-1.357,0-2.492-0.45-3.4-1.35
			c-0.911-0.899-1.365-2.467-1.365-4.708v-1.427c0-2.058,0.486-3.663,1.459-4.814c0.973-1.154,2.407-1.73,4.304-1.73
			c0.466,0,0.973,0.065,1.512,0.19c0.543,0.126,1.009,0.389,1.405,0.783V0.778h3.794V18.697z M122.351,14.828V8.023
			c-0.181-0.324-0.444-0.596-0.79-0.814c-0.344-0.218-0.803-0.328-1.369-0.328c-0.786,0-1.411,0.332-1.881,0.997
			c-0.466,0.664-0.7,1.88-0.7,3.647v0.952c0,1.41,0.187,2.404,0.555,2.974c0.368,0.576,0.943,0.863,1.723,0.863
			c0.525,0,1.017-0.146,1.466-0.434C121.808,15.593,122.141,15.241,122.351,14.828 M142.614,12.595h-9.288
			c0,1.52,0.344,2.577,1.034,3.169c0.688,0.595,1.584,0.892,2.686,0.892c0.725,0,1.475-0.094,2.237-0.28
			c0.766-0.187,1.552-0.466,2.357-0.839v2.286c-0.696,0.385-1.466,0.676-2.31,0.872c-0.842,0.198-1.814,0.295-2.913,0.295
			c-2.103,0-3.785-0.56-5.032-1.678c-1.253-1.118-1.877-2.755-1.877-4.907v-0.973c0-1.884,0.571-3.476,1.714-4.781
			c1.143-1.305,2.804-1.958,4.98-1.958c2.074,0,3.659,0.612,4.762,1.84c1.099,1.224,1.649,2.825,1.649,4.793v0.564V12.595z
			 M139.089,10.649c-0.081-1.35-0.372-2.313-0.885-2.894c-0.51-0.583-1.179-0.875-2.001-0.875c-0.721,0-1.366,0.288-1.933,0.863
			c-0.568,0.576-0.871,1.544-0.92,2.906H139.089z M154.594,14.536c0,1.269-0.457,2.326-1.377,3.177
			c-0.917,0.851-2.427,1.276-4.53,1.276c-0.88,0-1.678-0.073-2.4-0.22c-0.717-0.145-1.239-0.323-1.563-0.534v-2.407
			c0.373,0.215,0.9,0.429,1.576,0.648c0.682,0.215,1.377,0.324,2.091,0.324c0.912,0,1.608-0.155,2.096-0.467
			c0.486-0.308,0.729-0.705,0.729-1.191c0-0.465-0.162-0.847-0.486-1.139c-0.324-0.295-1.15-0.644-2.484-1.045
			c-1.248-0.372-2.103-0.899-2.554-1.581c-0.449-0.681-0.676-1.56-0.676-2.634c0-1.102,0.405-2.03,1.212-2.792
			c0.806-0.757,2.083-1.138,3.82-1.138c0.811,0,1.492,0.061,2.051,0.182c0.555,0.122,1.082,0.296,1.573,0.523v2.213
			c-0.357-0.208-0.864-0.381-1.517-0.52c-0.656-0.142-1.285-0.211-1.888-0.211c-0.693,0-1.256,0.122-1.691,0.361
			c-0.429,0.243-0.643,0.568-0.643,0.977c0,0.466,0.166,0.794,0.498,0.981c0.331,0.187,1.073,0.449,2.229,0.791
			c1.472,0.434,2.492,1.004,3.067,1.706C154.307,12.521,154.594,13.429,154.594,14.536"/>
		<path clip-path="url(#SVGID_2_)" fill-rule="evenodd" clip-rule="evenodd" fill="#CC8D83" d="M16.763,48.848v-4.18
			c0-0.078-0.017-0.132-0.051-0.162c-0.033-0.028-0.092-0.044-0.18-0.044h-1.153c-0.147,0-0.271,0.035-0.366,0.108
			c-0.097,0.073-0.182,0.195-0.257,0.365c-0.019,0.046-0.042,0.113-0.066,0.203c-0.034,0.131-0.083,0.199-0.142,0.202
			c-0.033-0.003-0.054-0.012-0.065-0.025c-0.011-0.013-0.016-0.041-0.016-0.084c0-0.032,0.001-0.06,0.002-0.081
			s0.003-0.042,0.006-0.061l0.091-0.834c0.008-0.072,0.025-0.12,0.055-0.143c0.027-0.022,0.101-0.034,0.22-0.034
			c0.036,0,0.162,0.01,0.379,0.026c0.218,0.017,0.417,0.024,0.598,0.024h2.586c0.202,0,0.422-0.008,0.657-0.024
			c0.236-0.017,0.372-0.026,0.407-0.026c0.057,0,0.098,0.012,0.125,0.034c0.026,0.022,0.043,0.059,0.048,0.109l0.059,0.754v0.057
			c0,0.055-0.009,0.094-0.026,0.118c-0.015,0.027-0.041,0.04-0.075,0.04c-0.06,0-0.1-0.055-0.117-0.161
			c-0.02-0.11-0.041-0.185-0.065-0.229c-0.054-0.107-0.141-0.19-0.26-0.25c-0.118-0.06-0.256-0.089-0.412-0.089h-1.079
			c-0.099,0-0.167,0.016-0.204,0.044c-0.034,0.03-0.052,0.087-0.052,0.17v4.204c0,0.251,0.021,0.418,0.063,0.501
			c0.042,0.081,0.125,0.149,0.249,0.203c0.063,0.03,0.146,0.056,0.252,0.077c0.013,0.003,0.025,0.006,0.033,0.008
			c0.074,0.012,0.12,0.025,0.142,0.043c0.021,0.019,0.032,0.044,0.032,0.079c0,0.045-0.016,0.076-0.044,0.097
			c-0.031,0.021-0.076,0.03-0.138,0.03c-0.068,0-0.206-0.009-0.417-0.028c-0.211-0.02-0.387-0.029-0.527-0.029
			c-0.187,0-0.381,0.014-0.587,0.038c-0.205,0.024-0.316,0.037-0.336,0.037c-0.049,0-0.087-0.011-0.115-0.03
			c-0.029-0.021-0.043-0.049-0.043-0.085c0-0.043,0.016-0.076,0.044-0.099c0.03-0.021,0.094-0.038,0.195-0.053
			c0.009-0.002,0.023-0.005,0.04-0.008c0.094-0.021,0.165-0.041,0.21-0.061c0.114-0.052,0.193-0.117,0.236-0.197
			C16.742,49.321,16.763,49.136,16.763,48.848 M24.656,48.966v-3.973c0-0.277-0.025-0.458-0.075-0.541
			c-0.051-0.082-0.142-0.123-0.274-0.123h-0.065c-0.048,0-0.087-0.011-0.115-0.028c-0.029-0.02-0.043-0.043-0.043-0.071
			c0-0.034,0.012-0.059,0.039-0.077c0.025-0.019,0.088-0.038,0.188-0.056c0.011-0.003,0.028-0.007,0.053-0.014
			c0.122-0.031,0.218-0.063,0.292-0.092c0.094-0.039,0.196-0.091,0.306-0.158c0.111-0.068,0.184-0.103,0.215-0.103
			c0.036,0,0.063,0.016,0.085,0.046c0.021,0.029,0.033,0.069,0.033,0.121c0,0.008-0.003,0.039-0.009,0.097
			c-0.032,0.385-0.049,0.797-0.049,1.229v1.687c0.218-0.2,0.429-0.349,0.63-0.444c0.202-0.099,0.399-0.146,0.589-0.146
			c0.195,0,0.379,0.043,0.552,0.13c0.173,0.086,0.315,0.205,0.426,0.359c0.099,0.136,0.17,0.298,0.212,0.491
			c0.042,0.19,0.062,0.479,0.062,0.869v0.807c0,0.233,0.017,0.388,0.049,0.464c0.032,0.075,0.091,0.139,0.177,0.189
			c0.033,0.021,0.068,0.033,0.107,0.043c0.04,0.01,0.086,0.015,0.139,0.015c0.069,0,0.115,0.01,0.143,0.028
			c0.026,0.02,0.04,0.052,0.04,0.098c0,0.03-0.011,0.054-0.035,0.071c-0.022,0.019-0.053,0.027-0.091,0.027
			c-0.016,0-0.106-0.008-0.271-0.021c-0.165-0.014-0.319-0.021-0.465-0.021c-0.213,0-0.416,0.013-0.611,0.037
			c-0.023,0.003-0.039,0.005-0.044,0.005c-0.024,0-0.047-0.009-0.067-0.027c-0.02-0.018-0.031-0.038-0.034-0.063
			c0-0.04,0.038-0.086,0.113-0.137c0.076-0.052,0.128-0.096,0.155-0.13c0.039-0.055,0.069-0.12,0.086-0.2
			c0.018-0.081,0.027-0.21,0.027-0.388v-0.931c0-0.499-0.071-0.85-0.213-1.05c-0.142-0.201-0.382-0.302-0.716-0.302
			c-0.303,0-0.539,0.075-0.709,0.224c-0.168,0.146-0.253,0.355-0.253,0.623v1.445c0,0.214,0.019,0.365,0.06,0.449
			c0.039,0.086,0.112,0.156,0.22,0.213c0.031,0.017,0.065,0.027,0.106,0.037c0.041,0.007,0.085,0.012,0.137,0.012
			c0.084,0.005,0.138,0.019,0.164,0.037c0.023,0.018,0.036,0.048,0.036,0.089c0,0.03-0.013,0.054-0.036,0.071
			c-0.026,0.019-0.057,0.027-0.099,0.027c-0.018,0-0.116-0.008-0.292-0.021c-0.177-0.014-0.343-0.021-0.496-0.021
			c-0.219,0-0.43,0.013-0.636,0.037c-0.033,0.003-0.053,0.005-0.062,0.005c-0.026,0-0.049-0.009-0.069-0.027
			c-0.018-0.018-0.027-0.038-0.027-0.063c0-0.026,0.008-0.051,0.024-0.07c0.016-0.021,0.046-0.041,0.089-0.063
			c0.011-0.008,0.028-0.021,0.05-0.036c0.052-0.038,0.087-0.07,0.11-0.098c0.05-0.064,0.087-0.136,0.108-0.215
			C24.645,49.26,24.656,49.136,24.656,48.966 M32.974,47.571h1.139c0.274,0,0.446-0.013,0.515-0.036
			c0.069-0.024,0.104-0.07,0.104-0.137c0-0.23-0.089-0.434-0.271-0.609c-0.181-0.175-0.395-0.263-0.641-0.263
			c-0.232,0-0.423,0.092-0.573,0.278C33.097,46.989,33.005,47.245,32.974,47.571 M32.957,47.787c0,0.537,0.122,0.967,0.365,1.287
			c0.244,0.318,0.57,0.479,0.98,0.479c0.308,0,0.621-0.108,0.94-0.328c0.085-0.057,0.139-0.086,0.162-0.086
			c0.025,0,0.04,0.003,0.047,0.011c0.007,0.007,0.01,0.021,0.01,0.047c0,0.031-0.014,0.07-0.043,0.112
			c-0.027,0.044-0.075,0.095-0.14,0.153c-0.195,0.183-0.403,0.314-0.618,0.399c-0.217,0.088-0.452,0.131-0.707,0.131
			c-0.442,0-0.816-0.168-1.124-0.508c-0.306-0.338-0.46-0.753-0.46-1.245c0-0.523,0.155-0.975,0.466-1.354s0.678-0.567,1.103-0.567
			c0.247,0,0.466,0.048,0.662,0.145c0.193,0.098,0.366,0.243,0.513,0.437c0.097,0.122,0.171,0.246,0.223,0.373
			c0.051,0.126,0.078,0.245,0.078,0.356c0,0.062-0.014,0.104-0.04,0.125c-0.028,0.021-0.106,0.032-0.24,0.032H32.957z
			 M43.414,47.348h1.581c0.048,0,0.086-0.007,0.116-0.022c0.028-0.015,0.043-0.034,0.043-0.06c0-0.021-0.012-0.063-0.037-0.124
			l-0.005-0.012l-0.755-1.944c-0.01-0.03-0.025-0.054-0.044-0.072c-0.019-0.021-0.037-0.028-0.052-0.028
			c-0.019,0-0.038,0.008-0.06,0.023c-0.019,0.016-0.037,0.04-0.05,0.069l-0.896,1.915c-0.015,0.029-0.028,0.057-0.036,0.08
			c-0.007,0.025-0.012,0.048-0.012,0.069c0,0.035,0.017,0.061,0.048,0.078C43.289,47.34,43.341,47.348,43.414,47.348 M42.063,48.95
			l2.294-4.91c0.023-0.049,0.044-0.08,0.062-0.094c0.019-0.014,0.041-0.021,0.071-0.024c0.037,0.004,0.071,0.043,0.1,0.122
			c0.002,0.005,0.006,0.01,0.008,0.013l1.879,4.792c0.096,0.243,0.186,0.422,0.273,0.536c0.086,0.114,0.187,0.196,0.303,0.246
			c0.046,0.019,0.115,0.036,0.203,0.053c0.119,0.021,0.178,0.063,0.178,0.121c0,0.035-0.008,0.06-0.025,0.076
			c-0.015,0.014-0.044,0.021-0.083,0.021c-0.005,0-0.115-0.009-0.326-0.025c-0.213-0.017-0.422-0.024-0.626-0.024
			c-0.214,0-0.434,0.015-0.661,0.046c-0.059,0.008-0.097,0.013-0.114,0.013c-0.022,0-0.041-0.012-0.061-0.032
			c-0.02-0.022-0.028-0.045-0.028-0.065c0-0.058,0.047-0.103,0.141-0.134c0.022-0.008,0.038-0.015,0.044-0.018
			c0.104-0.037,0.176-0.078,0.217-0.123c0.043-0.045,0.063-0.1,0.063-0.168c0-0.037-0.008-0.083-0.022-0.136
			c-0.015-0.052-0.036-0.112-0.063-0.181l-0.43-1.117c-0.041-0.105-0.086-0.174-0.136-0.207c-0.049-0.034-0.123-0.051-0.221-0.051
			h-1.863c-0.09,0-0.159,0.018-0.209,0.055c-0.05,0.036-0.104,0.121-0.164,0.252l-0.409,0.879c-0.046,0.102-0.078,0.186-0.097,0.249
			c-0.017,0.063-0.027,0.121-0.027,0.176c0,0.075,0.026,0.145,0.079,0.208s0.13,0.116,0.232,0.156
			c0.033,0.015,0.081,0.025,0.142,0.033c0.103,0.016,0.154,0.056,0.154,0.117c0,0.032-0.009,0.057-0.03,0.072
			c-0.021,0.017-0.054,0.025-0.103,0.025c-0.027,0-0.147-0.009-0.36-0.025s-0.407-0.024-0.583-0.024
			c-0.085,0-0.182,0.008-0.285,0.024c-0.105,0.017-0.165,0.025-0.182,0.025c-0.023,0-0.047-0.012-0.068-0.033
			c-0.021-0.021-0.033-0.048-0.033-0.078c0-0.042,0.049-0.083,0.146-0.122h0.004c0.005-0.002,0.015-0.007,0.029-0.013
			c0.07-0.028,0.124-0.056,0.157-0.079c0.068-0.051,0.134-0.124,0.2-0.219C41.899,49.264,41.975,49.128,42.063,48.95 M53.924,48.801
			v-1.41c0-0.128-0.019-0.23-0.054-0.31c-0.038-0.078-0.096-0.153-0.177-0.228c-0.117-0.103-0.253-0.182-0.412-0.239
			c-0.157-0.059-0.317-0.088-0.479-0.088c-0.309,0-0.565,0.134-0.767,0.401c-0.2,0.267-0.302,0.614-0.302,1.041
			c0,0.453,0.132,0.843,0.396,1.17c0.263,0.326,0.57,0.489,0.925,0.489c0.261,0,0.471-0.075,0.63-0.226
			C53.845,49.251,53.924,49.051,53.924,48.801 M53.924,49.396c-0.179,0.205-0.371,0.357-0.577,0.457s-0.437,0.148-0.689,0.148
			c-0.405,0-0.739-0.161-1.006-0.485c-0.265-0.323-0.398-0.729-0.398-1.222c0-0.546,0.17-1.01,0.51-1.391
			c0.34-0.384,0.743-0.576,1.205-0.576c0.162,0,0.324,0.026,0.484,0.081c0.16,0.053,0.32,0.131,0.48,0.232v-1.647
			c0-0.268-0.025-0.445-0.075-0.533s-0.142-0.131-0.272-0.131h-0.085c-0.059,0-0.105-0.011-0.139-0.031
			c-0.035-0.02-0.051-0.049-0.051-0.087c0-0.039,0.065-0.074,0.194-0.105h0.016c0.064-0.012,0.131-0.027,0.201-0.046
			c0.066-0.021,0.136-0.045,0.203-0.071c0.094-0.037,0.199-0.089,0.312-0.155c0.113-0.068,0.187-0.103,0.22-0.103
			c0.032,0,0.057,0.013,0.075,0.037c0.018,0.024,0.026,0.06,0.026,0.104c0,0.008-0.002,0.043-0.008,0.103
			c-0.023,0.395-0.036,0.81-0.036,1.249v3.69c0,0.286,0.023,0.468,0.07,0.547c0.047,0.078,0.134,0.117,0.26,0.117h0.067
			c0.046,0,0.083,0.009,0.111,0.026c0.029,0.019,0.044,0.043,0.047,0.075c0,0.066-0.091,0.11-0.275,0.133
			c-0.049,0.005-0.087,0.012-0.118,0.016c-0.146,0.021-0.29,0.054-0.434,0.095c-0.146,0.042-0.221,0.063-0.228,0.063
			c-0.031-0.003-0.053-0.017-0.068-0.043c-0.014-0.025-0.022-0.061-0.022-0.106V49.396z M61.928,48.801v-1.41
			c0-0.128-0.018-0.23-0.054-0.31c-0.038-0.078-0.095-0.153-0.177-0.228c-0.116-0.103-0.253-0.182-0.411-0.239
			c-0.158-0.059-0.318-0.088-0.48-0.088c-0.309,0-0.565,0.134-0.768,0.401c-0.2,0.267-0.301,0.614-0.301,1.041
			c0,0.453,0.131,0.843,0.396,1.17c0.263,0.326,0.572,0.489,0.925,0.489c0.262,0,0.472-0.075,0.63-0.226
			C61.849,49.251,61.928,49.051,61.928,48.801 M61.928,49.396c-0.179,0.205-0.371,0.357-0.577,0.457
			c-0.206,0.1-0.437,0.148-0.69,0.148c-0.404,0-0.74-0.161-1.006-0.485c-0.266-0.323-0.398-0.729-0.398-1.222
			c0-0.546,0.169-1.01,0.511-1.391c0.34-0.384,0.742-0.576,1.205-0.576c0.162,0,0.323,0.026,0.483,0.081
			c0.161,0.053,0.321,0.131,0.479,0.232v-1.647c0-0.268-0.024-0.445-0.074-0.533s-0.141-0.131-0.272-0.131h-0.086
			c-0.059,0-0.104-0.011-0.138-0.031c-0.035-0.02-0.051-0.049-0.051-0.087c0-0.039,0.065-0.074,0.195-0.105h0.015
			c0.065-0.012,0.131-0.027,0.2-0.046c0.068-0.021,0.137-0.045,0.204-0.071c0.095-0.037,0.199-0.089,0.312-0.155
			c0.113-0.068,0.187-0.103,0.219-0.103s0.058,0.013,0.075,0.037s0.027,0.06,0.027,0.104c0,0.008-0.003,0.043-0.009,0.103
			c-0.023,0.395-0.035,0.81-0.035,1.249v3.69c0,0.286,0.023,0.468,0.07,0.547c0.047,0.078,0.133,0.117,0.26,0.117h0.067
			c0.046,0,0.083,0.009,0.111,0.026c0.029,0.019,0.044,0.043,0.046,0.075c0,0.066-0.091,0.11-0.275,0.133
			c-0.048,0.005-0.086,0.012-0.117,0.016c-0.145,0.021-0.29,0.054-0.434,0.095c-0.145,0.042-0.221,0.063-0.228,0.063
			c-0.03-0.003-0.052-0.017-0.068-0.043c-0.014-0.025-0.021-0.061-0.021-0.106V49.396z M67.973,48.964v-1.77
			c0-0.132-0.031-0.229-0.096-0.296c-0.065-0.064-0.165-0.099-0.3-0.099c-0.079,0-0.133-0.008-0.162-0.021
			c-0.03-0.016-0.044-0.04-0.044-0.076c0-0.032,0.011-0.057,0.033-0.074c0.024-0.019,0.078-0.036,0.165-0.052
			c0.016-0.006,0.037-0.012,0.065-0.017c0.13-0.031,0.235-0.065,0.315-0.102c0.081-0.034,0.181-0.083,0.298-0.146
			c0.12-0.063,0.191-0.092,0.223-0.092c0.032,0,0.054,0.011,0.067,0.034s0.017,0.079,0.017,0.166v0.546
			c0.219-0.261,0.386-0.435,0.5-0.521c0.115-0.083,0.227-0.126,0.337-0.126c0.128,0,0.248,0.044,0.361,0.132
			c0.113,0.09,0.17,0.177,0.17,0.259c0,0.065-0.035,0.138-0.106,0.218c-0.07,0.081-0.129,0.121-0.178,0.121
			c-0.025,0-0.092-0.033-0.206-0.1c-0.113-0.066-0.225-0.1-0.333-0.1c-0.142,0-0.27,0.065-0.384,0.195
			c-0.113,0.131-0.169,0.274-0.169,0.434v1.369c0,0.276,0.021,0.461,0.061,0.56c0.04,0.097,0.115,0.174,0.226,0.23
			c0.033,0.017,0.07,0.027,0.108,0.037c0.039,0.007,0.084,0.012,0.136,0.012c0.084,0.005,0.138,0.019,0.163,0.037
			c0.024,0.018,0.037,0.048,0.037,0.089c0,0.027-0.014,0.05-0.04,0.069c-0.028,0.019-0.061,0.029-0.102,0.029
			c-0.019,0-0.117-0.008-0.291-0.021c-0.175-0.014-0.342-0.021-0.495-0.021c-0.224,0-0.44,0.013-0.648,0.037
			c-0.032,0.003-0.053,0.005-0.061,0.005c-0.027,0-0.05-0.009-0.068-0.027c-0.02-0.018-0.029-0.038-0.029-0.063
			c0-0.021,0.007-0.04,0.02-0.059c0.014-0.018,0.045-0.043,0.093-0.074c0.05-0.027,0.086-0.051,0.108-0.068
			c0.023-0.021,0.044-0.042,0.063-0.065c0.051-0.065,0.088-0.142,0.112-0.233C67.963,49.229,67.973,49.111,67.973,48.964
			 M74.582,47.571h1.139c0.274,0,0.446-0.013,0.516-0.036c0.069-0.024,0.104-0.07,0.104-0.137c0-0.23-0.09-0.434-0.271-0.609
			c-0.181-0.175-0.396-0.263-0.642-0.263c-0.232,0-0.423,0.092-0.573,0.278C74.705,46.989,74.613,47.245,74.582,47.571
			 M74.565,47.787c0,0.537,0.121,0.967,0.365,1.287c0.242,0.318,0.569,0.479,0.979,0.479c0.308,0,0.62-0.108,0.94-0.328
			c0.085-0.057,0.14-0.086,0.162-0.086c0.024,0,0.04,0.003,0.048,0.011c0.006,0.007,0.009,0.021,0.009,0.047
			c0,0.031-0.015,0.07-0.043,0.112c-0.027,0.044-0.075,0.095-0.14,0.153c-0.196,0.183-0.404,0.314-0.62,0.399
			c-0.217,0.088-0.452,0.131-0.706,0.131c-0.442,0-0.817-0.168-1.124-0.508c-0.307-0.338-0.46-0.753-0.46-1.245
			c0-0.523,0.155-0.975,0.466-1.354c0.312-0.379,0.679-0.567,1.104-0.567c0.246,0,0.465,0.048,0.661,0.145
			c0.193,0.098,0.366,0.243,0.513,0.437c0.097,0.122,0.171,0.246,0.222,0.373c0.052,0.126,0.078,0.245,0.078,0.356
			c0,0.062-0.014,0.104-0.041,0.125c-0.027,0.021-0.106,0.032-0.239,0.032H74.565z M81.491,49.521l-0.007-0.688
			c0-0.061,0.007-0.105,0.026-0.133c0.018-0.029,0.044-0.042,0.079-0.042c0.051,0,0.088,0.063,0.11,0.187
			c0.019,0.097,0.037,0.175,0.057,0.234c0.075,0.219,0.183,0.384,0.319,0.497c0.139,0.111,0.306,0.168,0.504,0.168
			c0.207,0,0.379-0.063,0.513-0.191c0.133-0.13,0.2-0.295,0.2-0.496c0-0.246-0.249-0.485-0.75-0.719
			c-0.096-0.044-0.168-0.078-0.219-0.105c-0.271-0.127-0.466-0.261-0.581-0.406c-0.116-0.145-0.174-0.319-0.174-0.527
			c0-0.294,0.098-0.527,0.296-0.702c0.198-0.175,0.464-0.261,0.802-0.261c0.265,0,0.47,0.026,0.614,0.08
			c0.145,0.054,0.218,0.128,0.221,0.225l0.008,0.465c0,0.051-0.005,0.089-0.016,0.11s-0.029,0.033-0.056,0.033
			c-0.044,0-0.078-0.044-0.102-0.128c-0.025-0.086-0.05-0.146-0.074-0.182c-0.089-0.127-0.199-0.227-0.328-0.297
			c-0.131-0.072-0.263-0.107-0.403-0.107c-0.173,0-0.312,0.044-0.416,0.134c-0.104,0.088-0.157,0.206-0.157,0.353
			c0,0.262,0.317,0.529,0.954,0.802c0.046,0.02,0.081,0.034,0.104,0.043c0.232,0.105,0.403,0.23,0.512,0.383
			c0.109,0.15,0.162,0.337,0.162,0.558c0,0.341-0.111,0.621-0.335,0.844c-0.224,0.224-0.508,0.335-0.85,0.335
			c-0.203,0-0.429-0.063-0.68-0.186c-0.068-0.032-0.112-0.051-0.134-0.057c-0.012-0.003-0.032-0.007-0.057-0.013
			C81.539,49.712,81.491,49.643,81.491,49.521 M88.024,49.521l-0.008-0.688c0-0.061,0.008-0.105,0.027-0.133
			c0.019-0.029,0.044-0.042,0.079-0.042c0.051,0,0.088,0.063,0.111,0.187c0.017,0.097,0.038,0.175,0.056,0.234
			c0.075,0.219,0.183,0.384,0.319,0.497c0.138,0.111,0.305,0.168,0.503,0.168c0.208,0,0.379-0.063,0.513-0.191
			c0.134-0.13,0.201-0.295,0.201-0.496c0-0.246-0.251-0.485-0.751-0.719c-0.096-0.044-0.168-0.078-0.22-0.105
			c-0.271-0.127-0.466-0.261-0.581-0.406c-0.116-0.145-0.174-0.319-0.174-0.527c0-0.294,0.098-0.527,0.295-0.702
			c0.198-0.175,0.465-0.261,0.801-0.261c0.266,0,0.47,0.026,0.614,0.08c0.145,0.054,0.218,0.128,0.221,0.225l0.009,0.465
			c0,0.051-0.006,0.089-0.017,0.11c-0.011,0.021-0.029,0.033-0.057,0.033c-0.043,0-0.078-0.044-0.101-0.128
			c-0.024-0.086-0.049-0.146-0.073-0.182c-0.09-0.127-0.198-0.227-0.329-0.297c-0.129-0.072-0.264-0.107-0.402-0.107
			c-0.173,0-0.312,0.044-0.416,0.134c-0.104,0.088-0.156,0.206-0.156,0.353c0,0.262,0.318,0.529,0.953,0.802
			c0.046,0.02,0.082,0.034,0.106,0.043c0.232,0.105,0.402,0.23,0.512,0.383c0.109,0.15,0.162,0.337,0.162,0.558
			c0,0.341-0.111,0.621-0.335,0.844c-0.225,0.224-0.508,0.335-0.851,0.335c-0.202,0-0.429-0.063-0.68-0.186
			c-0.068-0.032-0.112-0.051-0.134-0.057c-0.013-0.003-0.032-0.007-0.058-0.013C88.071,49.712,88.024,49.643,88.024,49.521
			 M98.318,45.888c-0.017-0.031-0.033-0.058-0.053-0.078c-0.02-0.022-0.034-0.031-0.049-0.031c-0.03,0-0.052,0.079-0.068,0.239
			c-0.018,0.159-0.031,0.462-0.049,0.906l-0.041,1.106c-0.002,0.095-0.004,0.192-0.006,0.294c-0.001,0.104-0.001,0.243-0.001,0.423
			c0,0.271,0.022,0.464,0.066,0.573c0.043,0.108,0.124,0.2,0.239,0.272c0.053,0.032,0.128,0.059,0.227,0.082
			c0.006,0.002,0.011,0.004,0.013,0.004h0.01c0.121,0.03,0.182,0.074,0.182,0.134c0,0.033-0.016,0.059-0.047,0.077
			c-0.03,0.02-0.072,0.028-0.127,0.028c-0.022,0-0.072-0.004-0.15-0.012c-0.268-0.024-0.518-0.037-0.752-0.037
			c-0.108,0-0.222,0.008-0.339,0.024c-0.115,0.018-0.176,0.024-0.185,0.024c-0.033,0-0.063-0.012-0.091-0.037
			c-0.029-0.027-0.043-0.056-0.043-0.09c0-0.021,0.007-0.042,0.021-0.064c0.012-0.021,0.026-0.035,0.043-0.04
			c0.009-0.003,0.016-0.006,0.023-0.008c0.018-0.007,0.029-0.01,0.038-0.01c0.143-0.05,0.238-0.101,0.285-0.148
			c0.049-0.05,0.085-0.115,0.109-0.199c0.057-0.175,0.112-0.606,0.169-1.295c0.055-0.688,0.081-1.436,0.081-2.24
			c0-0.369-0.032-0.663-0.101-0.88c-0.067-0.219-0.175-0.38-0.323-0.487c-0.035-0.03-0.098-0.056-0.187-0.078
			c-0.005-0.003-0.01-0.004-0.013-0.004l-0.013-0.004c-0.097-0.029-0.145-0.072-0.145-0.129c0-0.04,0.014-0.069,0.04-0.089
			c0.026-0.018,0.069-0.026,0.126-0.026c0.024,0,0.088,0.004,0.193,0.012c0.106,0.008,0.199,0.013,0.28,0.013h0.065
			c0.009-0.004,0.023-0.005,0.04-0.006s0.042-0.001,0.077-0.001c0.189,0,0.315,0.066,0.378,0.201l0.004,0.009l2.033,4.3
			c0.016,0.036,0.034,0.062,0.053,0.079c0.018,0.019,0.037,0.026,0.057,0.026c0.018,0,0.037-0.008,0.054-0.027
			c0.018-0.021,0.038-0.05,0.06-0.094l2.149-4.341c0.002-0.006,0.006-0.016,0.016-0.029c0.039-0.073,0.102-0.108,0.189-0.108h0.174
			c0.079,0,0.169-0.007,0.271-0.017c0.104-0.012,0.164-0.017,0.188-0.017c0.054,0,0.096,0.009,0.126,0.026
			c0.032,0.02,0.048,0.046,0.048,0.08c0,0.061-0.052,0.104-0.153,0.134h-0.004c-0.046,0.005-0.086,0.013-0.121,0.026
			c-0.033,0.011-0.063,0.027-0.087,0.046c-0.086,0.057-0.146,0.125-0.182,0.204s-0.052,0.201-0.052,0.363v0.105l0.084,3.716v0.053
			c0.009,0.412,0.108,0.665,0.297,0.759c0.038,0.021,0.096,0.04,0.172,0.061c0.007,0.003,0.016,0.007,0.022,0.01h0.005
			c0.102,0.025,0.151,0.064,0.151,0.112c0,0.037-0.017,0.067-0.049,0.087c-0.033,0.021-0.08,0.031-0.142,0.031
			c-0.063,0-0.19-0.007-0.383-0.017c-0.194-0.011-0.353-0.017-0.48-0.017c-0.125,0-0.255,0.008-0.39,0.024
			c-0.134,0.018-0.206,0.024-0.215,0.024c-0.043,0-0.074-0.007-0.095-0.022c-0.021-0.014-0.03-0.037-0.03-0.067
			c0-0.037,0.009-0.066,0.03-0.088c0.021-0.022,0.067-0.044,0.144-0.068c0.011-0.003,0.023-0.008,0.035-0.013
			c0.015-0.007,0.035-0.016,0.062-0.028c0.09-0.044,0.152-0.106,0.188-0.186c0.037-0.082,0.055-0.213,0.055-0.391
			c0-0.029-0.002-0.084-0.005-0.16c-0.002-0.076-0.004-0.138-0.004-0.18l-0.047-2.625c-0.006-0.145-0.019-0.249-0.032-0.31
			c-0.017-0.062-0.04-0.091-0.069-0.091c-0.028,0-0.06,0.022-0.099,0.067c-0.037,0.047-0.078,0.117-0.124,0.211l-1.757,3.567
			c-0.033,0.071-0.063,0.12-0.092,0.148s-0.06,0.043-0.091,0.043c-0.034,0-0.067-0.016-0.097-0.047
			c-0.03-0.03-0.058-0.079-0.086-0.145L98.318,45.888z M110.565,48.077c-0.586,0.122-0.991,0.259-1.215,0.41
			c-0.223,0.151-0.335,0.353-0.335,0.607c0,0.197,0.054,0.352,0.162,0.461c0.106,0.108,0.26,0.163,0.453,0.163
			c0.268,0,0.491-0.068,0.669-0.208s0.266-0.317,0.266-0.531V48.077z M110.619,49.479c-0.188,0.173-0.388,0.3-0.604,0.383
			c-0.216,0.082-0.457,0.124-0.725,0.124c-0.262,0-0.462-0.068-0.6-0.205c-0.137-0.135-0.206-0.333-0.206-0.591
			c0-0.333,0.152-0.595,0.457-0.787c0.302-0.192,0.845-0.362,1.624-0.508v-0.573c0-0.25-0.077-0.443-0.229-0.578
			c-0.154-0.134-0.375-0.2-0.664-0.2c-0.247,0-0.421,0.035-0.521,0.104c-0.101,0.071-0.151,0.191-0.151,0.358
			c0,0.071,0.01,0.153,0.028,0.244c0.02,0.092,0.029,0.148,0.029,0.167c0,0.037-0.018,0.068-0.054,0.094
			c-0.037,0.023-0.083,0.035-0.14,0.035c-0.108,0-0.199-0.028-0.274-0.087c-0.075-0.058-0.112-0.129-0.112-0.217
			c0-0.235,0.131-0.45,0.39-0.641c0.262-0.193,0.568-0.291,0.92-0.291c0.493,0,0.844,0.093,1.047,0.279
			c0.202,0.187,0.306,0.517,0.306,0.992v1.52c0,0.229,0.022,0.377,0.065,0.444c0.046,0.066,0.131,0.1,0.255,0.1
			c0.022,0,0.051-0.002,0.089-0.004c0.038-0.004,0.063-0.005,0.077-0.005c0.019,0,0.037,0.009,0.053,0.025
			c0.017,0.019,0.024,0.039,0.024,0.064c0,0.058-0.045,0.104-0.136,0.144c-0.089,0.038-0.206,0.057-0.346,0.057
			c-0.147,0-0.271-0.037-0.372-0.111C110.749,49.74,110.672,49.628,110.619,49.479 M116.376,48.964v-3.972
			c0-0.286-0.025-0.468-0.074-0.546c-0.048-0.08-0.141-0.117-0.275-0.117h-0.065c-0.046,0-0.083-0.009-0.11-0.027
			c-0.029-0.017-0.045-0.041-0.048-0.072c0-0.061,0.071-0.105,0.211-0.137l0.008-0.004c0.065-0.013,0.125-0.026,0.18-0.041
			c0.056-0.017,0.111-0.036,0.165-0.057c0.094-0.039,0.197-0.091,0.312-0.158c0.112-0.068,0.186-0.103,0.218-0.103
			c0.035,0,0.062,0.015,0.082,0.041c0.018,0.028,0.027,0.066,0.027,0.117c0,0.012-0.001,0.04-0.005,0.083
			c-0.003,0.045-0.004,0.083-0.004,0.114c-0.013,0.195-0.022,0.385-0.03,0.568c-0.007,0.186-0.01,0.376-0.01,0.569v2.864l1.18-1.073
			c0.051-0.049,0.091-0.098,0.121-0.144c0.029-0.048,0.045-0.09,0.045-0.128c0-0.045-0.047-0.083-0.143-0.108
			c-0.012-0.003-0.02-0.006-0.027-0.009c-0.068-0.013-0.115-0.031-0.143-0.048c-0.027-0.021-0.041-0.046-0.041-0.078
			c0-0.024,0.017-0.046,0.049-0.063c0.031-0.019,0.072-0.025,0.117-0.025c0.011,0,0.083,0.007,0.215,0.023
			c0.133,0.017,0.261,0.025,0.385,0.025c0.103,0,0.221-0.009,0.352-0.025c0.132-0.017,0.21-0.023,0.236-0.023
			c0.053,0,0.09,0.007,0.114,0.023c0.023,0.016,0.037,0.041,0.037,0.073c0,0.063-0.046,0.102-0.139,0.118h-0.005
			c-0.04,0.006-0.079,0.015-0.121,0.024c-0.04,0.01-0.081,0.025-0.125,0.045c-0.262,0.102-0.492,0.25-0.689,0.444
			c-0.021,0.024-0.038,0.04-0.049,0.049l-0.706,0.632c0.381,0.528,0.688,0.929,0.919,1.203c0.231,0.271,0.412,0.449,0.548,0.529
			c0.108,0.062,0.246,0.106,0.413,0.129c0.014,0.003,0.022,0.005,0.028,0.005c0.079,0.005,0.13,0.015,0.151,0.03
			c0.023,0.016,0.037,0.039,0.04,0.074c0,0.042-0.02,0.07-0.055,0.086c-0.036,0.017-0.106,0.025-0.211,0.025h-0.69
			c-0.179,0-0.544-0.359-1.093-1.079c-0.2-0.261-0.361-0.47-0.483-0.623l-0.23,0.219v0.555c0,0.243,0.02,0.401,0.057,0.477
			c0.037,0.077,0.109,0.14,0.214,0.188c0.044,0.019,0.111,0.034,0.202,0.049h0.009c0.075,0.005,0.126,0.019,0.147,0.037
			c0.024,0.018,0.034,0.048,0.034,0.089c0,0.03-0.012,0.054-0.035,0.071c-0.025,0.019-0.057,0.027-0.099,0.027
			c-0.01,0-0.097-0.008-0.26-0.021s-0.319-0.021-0.468-0.021c-0.224,0-0.436,0.013-0.64,0.037c-0.031,0.003-0.051,0.005-0.057,0.005
			c-0.028,0-0.054-0.009-0.072-0.027c-0.019-0.018-0.028-0.038-0.028-0.063c0-0.027,0.01-0.053,0.029-0.074
			c0.018-0.024,0.058-0.052,0.117-0.085c0.014-0.009,0.027-0.018,0.044-0.029c0.048-0.025,0.081-0.051,0.103-0.071
			c0.045-0.049,0.077-0.11,0.095-0.182C116.367,49.305,116.376,49.167,116.376,48.964 M124.406,47.571h1.138
			c0.276,0,0.447-0.013,0.517-0.036c0.069-0.024,0.104-0.07,0.104-0.137c0-0.23-0.09-0.434-0.271-0.609
			c-0.181-0.175-0.395-0.263-0.642-0.263c-0.231,0-0.422,0.092-0.571,0.278C124.528,46.989,124.438,47.245,124.406,47.571
			 M124.389,47.787c0,0.537,0.123,0.967,0.365,1.287c0.243,0.318,0.569,0.479,0.98,0.479c0.309,0,0.62-0.108,0.94-0.328
			c0.085-0.057,0.139-0.086,0.161-0.086c0.024,0,0.04,0.003,0.047,0.011c0.007,0.007,0.009,0.021,0.009,0.047
			c0,0.031-0.013,0.07-0.042,0.112c-0.027,0.044-0.074,0.095-0.139,0.153c-0.197,0.183-0.403,0.314-0.621,0.399
			c-0.216,0.088-0.451,0.131-0.705,0.131c-0.442,0-0.817-0.168-1.124-0.508c-0.308-0.338-0.46-0.753-0.46-1.245
			c0-0.523,0.154-0.975,0.465-1.354c0.312-0.379,0.68-0.567,1.104-0.567c0.246,0,0.466,0.048,0.661,0.145
			c0.193,0.098,0.365,0.243,0.514,0.437c0.098,0.122,0.172,0.246,0.223,0.373c0.052,0.126,0.077,0.245,0.077,0.356
			c0,0.062-0.013,0.104-0.04,0.125c-0.028,0.021-0.106,0.032-0.239,0.032H124.389z M131.66,48.964v-1.77
			c0-0.132-0.031-0.229-0.096-0.296c-0.065-0.064-0.165-0.099-0.301-0.099c-0.078,0-0.132-0.008-0.161-0.021
			c-0.03-0.016-0.045-0.04-0.045-0.076c0-0.032,0.012-0.057,0.033-0.074c0.023-0.019,0.079-0.036,0.164-0.052
			c0.018-0.006,0.038-0.012,0.065-0.017c0.131-0.031,0.235-0.065,0.315-0.102c0.081-0.034,0.181-0.083,0.299-0.146
			c0.119-0.063,0.192-0.092,0.223-0.092s0.054,0.011,0.066,0.034c0.012,0.023,0.018,0.079,0.018,0.166v0.546
			c0.219-0.261,0.386-0.435,0.5-0.521c0.115-0.083,0.227-0.126,0.337-0.126c0.128,0,0.249,0.044,0.361,0.132
			c0.113,0.09,0.171,0.177,0.171,0.259c0,0.065-0.036,0.138-0.105,0.218c-0.071,0.081-0.13,0.121-0.178,0.121
			c-0.025,0-0.093-0.033-0.206-0.1c-0.114-0.066-0.226-0.1-0.333-0.1c-0.144,0-0.271,0.065-0.386,0.195
			c-0.112,0.131-0.169,0.274-0.169,0.434v1.369c0,0.276,0.02,0.461,0.061,0.56c0.04,0.097,0.115,0.174,0.227,0.23
			c0.033,0.017,0.069,0.027,0.108,0.037c0.038,0.007,0.084,0.012,0.135,0.012c0.084,0.005,0.138,0.019,0.164,0.037
			c0.023,0.018,0.035,0.048,0.035,0.089c0,0.027-0.013,0.05-0.04,0.069c-0.027,0.019-0.061,0.029-0.103,0.029
			c-0.019,0-0.116-0.008-0.29-0.021c-0.177-0.014-0.343-0.021-0.495-0.021c-0.224,0-0.438,0.013-0.648,0.037
			c-0.032,0.003-0.052,0.005-0.061,0.005c-0.025,0-0.05-0.009-0.068-0.027c-0.019-0.018-0.028-0.038-0.028-0.063
			c0-0.021,0.007-0.04,0.021-0.059c0.013-0.018,0.044-0.043,0.092-0.074c0.05-0.027,0.085-0.051,0.108-0.068
			c0.022-0.021,0.043-0.042,0.063-0.065c0.052-0.065,0.089-0.142,0.112-0.233C131.65,49.229,131.66,49.111,131.66,48.964
			 M137.91,49.521l-0.009-0.688c0-0.061,0.009-0.105,0.027-0.133c0.018-0.029,0.044-0.042,0.079-0.042
			c0.051,0,0.088,0.063,0.109,0.187c0.019,0.097,0.037,0.175,0.058,0.234c0.073,0.219,0.183,0.384,0.319,0.497
			c0.138,0.111,0.305,0.168,0.502,0.168c0.208,0,0.379-0.063,0.514-0.191c0.134-0.13,0.201-0.295,0.201-0.496
			c0-0.246-0.251-0.485-0.751-0.719c-0.096-0.044-0.168-0.078-0.221-0.105c-0.271-0.127-0.466-0.261-0.58-0.406
			c-0.117-0.145-0.175-0.319-0.175-0.527c0-0.294,0.099-0.527,0.296-0.702c0.198-0.175,0.466-0.261,0.802-0.261
			c0.266,0,0.471,0.026,0.614,0.08c0.145,0.054,0.219,0.128,0.222,0.225l0.008,0.465c0,0.051-0.006,0.089-0.017,0.11
			s-0.028,0.033-0.057,0.033c-0.043,0-0.078-0.044-0.101-0.128c-0.025-0.086-0.051-0.146-0.073-0.182
			c-0.09-0.127-0.199-0.227-0.329-0.297c-0.13-0.072-0.265-0.107-0.401-0.107c-0.174,0-0.313,0.044-0.417,0.134
			c-0.104,0.088-0.156,0.206-0.156,0.353c0,0.262,0.318,0.529,0.954,0.802c0.044,0.02,0.081,0.034,0.104,0.043
			c0.232,0.105,0.402,0.23,0.513,0.383c0.108,0.15,0.162,0.337,0.162,0.558c0,0.341-0.112,0.621-0.337,0.844
			c-0.224,0.224-0.507,0.335-0.85,0.335c-0.201,0-0.428-0.063-0.679-0.186c-0.068-0.032-0.112-0.051-0.136-0.057
			c-0.012-0.003-0.031-0.007-0.057-0.013C137.958,49.712,137.91,49.643,137.91,49.521"/>
	</g>
</g>
</svg>
