<?xml version="1.0" encoding="utf-8"?>
<!-- Generator: Adobe Illustrator 16.0.0, SVG Export Plug-In . SVG Version: 6.00 Build 0)  -->
<!DOCTYPE svg PUBLIC "-//W3C//DTD SVG 1.1//EN" "http://www.w3.org/Graphics/SVG/1.1/DTD/svg11.dtd">
<svg version="1.1" id="Layer_1" xmlns="http://www.w3.org/2000/svg" xmlns:xlink="http://www.w3.org/1999/xlink" x="0px" y="0px"
	 width="843.479px" height="632.961px" viewBox="0 0 843.479 632.961" enable-background="new 0 0 843.479 632.961"
	 xml:space="preserve">
<g>
	<g>
		<path fill-rule="evenodd" clip-rule="evenodd" d="M427.74,2.339l16.258,26.125c7.273,11.685,6.593,31.903-1.516,44.933
			L427.74,97.075l-16.258-26.12c-7.272-11.69-6.596-31.904,1.514-44.932L427.74,2.339z M288.263,54.583l15.387,3.574
			c6.888,1.608,13.977,9.184,15.759,16.867l3.244,13.95l-15.376-3.586c-6.89-1.596-13.979-9.181-15.765-16.858L288.263,54.583z
			 M237.215,143.002l15.113-4.596c6.773-2.054,16.7,0.967,22.083,6.728l9.79,10.457l-15.113,4.588
			c-6.772,2.063-16.697-0.965-22.082-6.719L237.215,143.002z M237.215,245.101l10.795-11.53c4.835-5.168,14.938-7.514,22.482-5.224
			l13.708,4.163l-10.795,11.539c-4.833,5.161-14.936,7.509-22.483,5.216L237.215,245.101z M288.263,333.53l3.583-15.387
			c1.602-6.89,9.183-13.981,16.86-15.765l13.955-3.243l-3.583,15.379c-1.604,6.888-9.182,13.976-16.858,15.76L288.263,333.53z
			 M376.692,384.576l-4.597-15.112c-2.052-6.777,0.964-16.698,6.726-22.08l10.457-9.793l4.587,15.111
			c2.063,6.775-0.962,16.696-6.717,22.079L376.692,384.576z M478.788,384.576l-11.529-10.799
			c-5.167-4.835-7.516-14.936-5.223-22.479l4.162-13.707l11.539,10.794c5.161,4.835,7.507,14.939,5.214,22.481L478.788,384.576z
			 M567.209,333.53l-15.377-3.587c-6.899-1.6-13.979-9.183-15.764-16.858l-3.25-13.956l15.382,3.583
			c6.891,1.606,13.979,9.184,15.764,16.86L567.209,333.53z M618.264,245.101l-15.112,4.593c-6.775,2.055-16.698-0.963-22.08-6.727
			l-9.795-10.457l15.115-4.585c6.774-2.063,16.696,0.965,22.079,6.719L618.264,245.101z M618.264,143.002l-10.796,11.53
			c-4.836,5.167-14.937,7.515-22.481,5.222l-13.71-4.163l10.798-11.538c4.837-5.158,14.936-7.506,22.481-5.212L618.264,143.002z
			 M567.209,54.583l-3.577,15.376c-1.606,6.896-9.182,13.977-16.868,15.76l-13.945,3.255l3.583-15.387
			c1.598-6.889,9.185-13.979,16.858-15.763L567.209,54.583z M478.788,3.526l4.594,15.112c2.056,6.773-0.964,16.699-6.727,22.082
			l-10.457,9.792L461.611,35.4c-2.06-6.772,0.967-16.698,6.722-22.082L478.788,3.526z M376.692,3.526l11.528,10.797
			c5.167,4.833,7.516,14.937,5.221,22.483l-4.163,13.707L377.74,39.715c-5.156-4.833-7.505-14.936-5.212-22.48L376.692,3.526z
			 M400.369,91.9l-2.418,7.955c-1.327,4.379,0.034,10.24,3.029,13.043l6.688,6.263l2.419-7.952
			c1.325-4.381-0.035-10.242-3.03-13.045L400.369,91.9z M352.96,119.27l8.928,2.076c3.991,0.929,8.108,5.33,9.142,9.779l1.885,8.101
			l-8.927-2.079c-3.995-0.926-8.111-5.328-9.146-9.777L352.96,119.27z M325.589,166.682l8.765-2.664
			c3.924-1.191,9.684,0.563,12.813,3.898l5.676,6.069l-8.773,2.665c-3.924,1.19-9.677-0.564-12.804-3.899L325.589,166.682z
			 M325.589,221.421l6.264-6.688c2.802-2.997,8.665-4.356,13.036-3.027l7.953,2.417l-6.264,6.688
			c-2.804,2.997-8.664,4.356-13.036,3.026L325.589,221.421z M352.96,268.833l2.075-8.928c0.925-3.996,5.329-8.111,9.778-9.143
			l8.102-1.888l-2.08,8.929c-0.924,3.991-5.327,8.107-9.776,9.146L352.96,268.833z M400.369,296.202l-2.664-8.768
			c-1.197-3.922,0.557-9.681,3.891-12.81l6.071-5.676l2.67,8.771c1.19,3.924-0.563,9.677-3.897,12.806L400.369,296.202z
			 M455.109,296.202l-6.694-6.262c-2.999-2.802-4.357-8.667-3.028-13.038l2.417-7.953l6.696,6.263
			c2.997,2.802,4.354,8.666,3.025,13.038L455.109,296.202z M502.515,268.833l-8.929-2.079c-3.993-0.927-8.103-5.33-9.137-9.779
			l-1.884-8.1l8.928,2.077c3.99,0.93,8.101,5.329,9.135,9.778L502.515,268.833z M529.892,221.421l-8.775,2.664
			c-3.924,1.197-9.683-0.555-12.803-3.893l-5.687-6.069l8.775-2.674c3.922-1.187,9.685,0.564,12.803,3.902L529.892,221.421z
			 M529.892,166.682l-6.263,6.694c-2.806,2.996-8.668,4.356-13.045,3.029l-7.957-2.419l6.267-6.693
			c2.802-2.997,8.666-4.356,13.043-3.027L529.892,166.682z M502.522,119.278l-2.079,8.929c-0.926,3.992-5.329,8.099-9.779,9.134
			l-8.099,1.885l2.075-8.928c0.927-3.994,5.33-8.102,9.779-9.136L502.522,119.278z M331.881,28.025l-0.925,27.878
			c-0.502,15.336,9.012,33.184,21.16,39.671l27.141,14.489l0.923-27.878c0.511-15.34-9.012-33.188-21.151-39.666L331.881,28.025z
			 M261.71,98.194l13.138,24.605c7.229,13.538,24.397,24.242,38.16,23.778l30.751-1.018l-13.144-24.604
			c-7.226-13.539-24.39-24.234-38.151-23.781L261.71,98.194z M236.024,194.052l23.686,14.742c13.027,8.11,33.244,8.789,44.934,1.515
			l26.118-16.257l-23.677-14.744c-13.029-8.109-33.248-8.788-44.932-1.513L236.024,194.052z M261.71,289.906l27.884,0.929
			c15.336,0.5,33.185-9.014,39.671-21.159l14.486-27.14l-27.878-0.927c-15.339-0.512-33.186,9.013-39.667,21.152L261.71,289.906z
			 M331.881,360.078l24.606-13.139c13.536-7.226,24.243-24.393,23.779-38.156l-1.021-30.753l-24.602,13.142
			c-13.537,7.231-24.236,24.39-23.779,38.153L331.881,360.078z M427.74,385.764l14.742-23.687
			c8.108-13.028,8.789-33.238,1.516-44.933l-16.258-26.118l-14.744,23.679c-8.11,13.031-8.786,33.25-1.514,44.93L427.74,385.764z
			 M523.594,360.078l0.929-27.879c0.502-15.34-9.014-33.188-21.158-39.673l-27.139-14.488l-0.931,27.88
			c-0.508,15.333,9.014,33.186,21.156,39.663L523.594,360.078z M593.767,289.906L580.629,265.3
			c-7.227-13.535-24.396-24.241-38.158-23.778l-30.751,1.021l13.142,24.605c7.229,13.536,24.39,24.233,38.153,23.779
			L593.767,289.906z M619.452,194.052l-23.686-14.744c-13.029-8.109-33.238-8.788-44.932-1.513l-26.121,16.257l23.681,14.742
			c13.027,8.11,33.246,8.789,44.932,1.515L619.452,194.052z M593.767,98.194l-27.878-0.927c-15.34-0.502-33.188,9.013-39.676,21.16
			l-14.489,27.139l27.884,0.927c15.336,0.51,33.185-9.013,39.663-21.154L593.767,98.194z M523.594,28.025L498.989,41.16
			c-13.536,7.23-24.24,24.397-23.777,38.159l1.019,30.753l24.607-13.146c13.538-7.227,24.234-24.388,23.777-38.15L523.594,28.025z
			 M455.109,91.9l-6.069,5.683c-3.338,3.121-5.088,8.883-3.901,12.806l2.665,8.772l6.07-5.683c3.337-3.12,5.089-8.882,3.902-12.805
			L455.109,91.9z"/>
		<path fill-rule="evenodd" clip-rule="evenodd" d="M387.196,228.17c2.158-0.077,3.795-0.338,4.924-0.78
			c1.12-0.441,2-1.382,2.644-2.819c0.639-1.445,0.954-3.723,0.954-6.851v-46.004c0-4.488,0.163-8.095,0.481-10.813l-9.003,0.356
			v-9.252h34.473v7.93c-2.163,0.08-3.806,0.34-4.926,0.78c-1.122,0.44-2.001,1.383-2.641,2.828c-0.643,1.435-0.96,3.721-0.96,6.841
			v18.745h33.033v-17.415c0-5.368,0.16-8.975,0.479-10.813l-9.007,0.356v-9.252h34.475v7.93c-2.161,0.08-3.798,0.34-4.925,0.78
			c-1.122,0.44-1.999,1.383-2.644,2.828c-0.641,1.435-0.955,3.721-0.955,6.841V216.4c0,4.487-0.164,8.087-0.481,10.814
			c2.557-0.241,5.563-0.364,9.005-0.364v9.25h-34.475v-7.93c2.165-0.077,3.8-0.338,4.929-0.78c1.12-0.441,1.999-1.382,2.639-2.819
			c0.644-1.445,0.96-3.723,0.96-6.851v-19.46l-33.033,0.362V216.4c0,4.487-0.16,8.087-0.483,10.814
			c2.562-0.241,5.566-0.364,9.01-0.364v9.25h-34.473V228.17z"/>
		<g>
			<defs>
				<path id="SVGID_1_" d="M379.116,345.046c-5.764,5.381-8.782,15.302-6.728,22.077l4.596,15.115l10.457-9.795
					c5.753-5.385,8.78-15.307,6.717-22.078l-4.588-15.114L379.116,345.046z M462.331,348.957
					c-2.297,7.546,0.053,17.648,5.221,22.483l11.528,10.798l4.164-13.709c2.292-7.544-0.054-17.646-5.214-22.484l-11.538-10.794
					L462.331,348.957z M308.998,300.042c-7.674,1.784-15.26,8.872-16.86,15.761l-3.582,15.387l13.954-3.257
					c7.68-1.78,15.255-8.869,16.86-15.757l3.582-15.376L308.998,300.042z M536.361,310.745c1.783,7.677,8.864,15.26,15.763,16.858
					l15.378,3.587l-3.245-13.957c-1.783-7.675-8.873-15.252-15.766-16.858l-15.382-3.583L536.361,310.745z M413.287,312.365
					c-8.107,13.032-8.785,33.251-1.51,44.934l16.256,26.128l14.743-23.688c8.107-13.029,8.788-33.239,1.513-44.932l-16.256-26.119
					L413.287,312.365z M475.59,303.58c-0.511,15.336,9.012,33.184,21.154,39.663l27.145,14.499l0.924-27.883
					c0.507-15.337-9.011-33.188-21.156-39.673l-27.138-14.484L475.59,303.58z M354.937,288.835
					c-13.54,7.228-24.235,24.388-23.781,38.149l1.018,30.757l24.604-13.138c13.54-7.229,24.243-24.396,23.779-38.16l-1.018-30.749
					L354.937,288.835z M401.89,272.286c-3.336,3.129-5.092,8.888-3.891,12.812l2.665,8.766l6.069-5.678
					c3.334-3.126,5.091-8.88,3.899-12.804l-2.674-8.773L401.89,272.286z M445.68,274.565c-1.331,4.37,0.028,10.232,3.027,13.034
					l6.696,6.264l2.415-7.955c1.327-4.372-0.029-10.232-3.024-13.036l-6.698-6.264L445.68,274.565z M365.106,248.424
					c-4.451,1.031-8.852,5.148-9.779,9.143l-2.075,8.928l8.101-1.885c4.447-1.034,8.852-5.151,9.777-9.144l2.079-8.928
					L365.106,248.424z M484.738,254.636c1.036,4.451,5.146,8.852,9.139,9.779l8.93,2.079l-1.884-8.101
					c-1.038-4.451-5.145-8.852-9.137-9.781l-8.93-2.076L484.738,254.636z M276.501,260.427l-14.497,27.141l27.88,0.929
					c15.338,0.5,33.184-9.012,39.673-21.16l14.488-27.138l-27.88-0.928c-0.393-0.013-0.792-0.02-1.19-0.02
					C299.917,239.252,282.813,248.597,276.501,260.427 M542.763,239.183l-30.749,1.024l13.143,24.604
					c7.227,13.538,24.387,24.234,38.149,23.779l30.753-1.022l-13.137-24.604c-7.075-13.255-23.683-23.794-37.29-23.795
					C543.338,239.169,543.05,239.173,542.763,239.183 M264.51,225.13c-6.171,0-12.63,2.277-16.207,6.103l-10.798,11.529l13.71,4.162
					c7.546,2.295,17.648-0.054,22.48-5.214l10.799-11.538l-13.712-4.164c-1.961-0.596-4.094-0.878-6.262-0.878
					C264.519,225.13,264.516,225.13,264.51,225.13 M591.37,224.939c-1.655,0-3.244,0.207-4.686,0.648l-15.116,4.585l9.795,10.456
					c5.383,5.762,15.306,8.78,22.079,6.728l15.113-4.594l-9.793-10.457c-4.233-4.526-11.279-7.366-17.391-7.366H591.37
					 M332.143,212.395l-6.261,6.688l7.951,2.416c4.374,1.33,10.234-0.028,13.038-3.026l6.262-6.688l-7.951-2.417
					c-1.14-0.346-2.379-0.511-3.64-0.511C337.963,208.857,334.218,210.179,332.143,212.395 M511.693,209.113l-8.772,2.671
					l5.688,6.07c3.116,3.338,8.875,5.089,12.799,3.892l8.776-2.663l-5.687-6.07c-2.456-2.628-6.551-4.274-10.099-4.274
					C513.446,208.738,512.526,208.859,511.693,209.113 M262.447,175.456l-26.13,16.256l23.688,14.744
					c13.029,8.11,33.24,8.789,44.928,1.516l26.123-16.26l-23.679-14.743c-6.977-4.343-16.017-6.553-24.704-6.553
					C275.141,170.415,267.874,172.079,262.447,175.456 M551.128,175.456l-26.119,16.256l23.678,14.744
					c13.026,8.11,33.245,8.789,44.931,1.516l26.129-16.26l-23.688-14.743c-6.975-4.343-16.015-6.553-24.698-6.553
					C563.825,170.415,556.559,172.079,551.128,175.456 M509.183,164.954l-6.262,6.692l7.955,2.419
					c4.378,1.328,10.242-0.032,13.044-3.029l6.265-6.693l-7.957-2.416c-1.141-0.347-2.381-0.511-3.643-0.511
					C515.003,161.417,511.259,162.736,509.183,164.954 M334.646,161.68l-8.764,2.664l5.674,6.069
					c3.127,3.335,8.882,5.089,12.804,3.899l8.773-2.666l-5.674-6.07c-2.463-2.624-6.558-4.27-10.102-4.27
					C336.397,161.307,335.48,161.425,334.646,161.68 M582.365,141.714l-10.797,11.539l13.71,4.163
					c7.546,2.293,17.648-0.055,22.481-5.221l10.796-11.529l-13.709-4.164c-1.964-0.598-4.103-0.88-6.276-0.88
					C592.397,135.622,585.941,137.9,582.365,141.714 M252.621,136.068l-15.115,4.597l9.793,10.455
					c5.385,5.755,15.308,8.783,22.083,6.72l15.113-4.587l-9.793-10.457c-4.236-4.535-11.291-7.371-17.404-7.371
					C255.646,135.424,254.061,135.631,252.621,136.068 M494.713,118.821c-4.451,1.036-8.853,5.145-9.779,9.139l-2.077,8.929
					l8.099-1.885c4.451-1.037,8.853-5.145,9.781-9.137l2.079-8.928L494.713,118.821z M355.135,125.032
					c1.033,4.448,5.151,8.852,9.147,9.776l8.926,2.08l-1.887-8.102c-1.034-4.451-5.149-8.852-9.142-9.78l-8.928-2.074
					L355.135,125.032z M526.507,116.09l-14.49,27.139l27.882,0.924c15.338,0.511,33.185-9.011,39.665-21.152l14.495-27.146
					L566.18,94.93c-0.386-0.014-0.777-0.02-1.167-0.02C549.946,94.911,532.832,104.249,526.507,116.09 M292.756,94.835
					l-30.751,1.019l13.136,24.604c7.228,13.54,24.397,24.243,38.158,23.781l30.754-1.02l-13.145-24.604
					c-7.081-13.259-23.688-23.793-37.298-23.793C293.325,94.823,293.04,94.827,292.756,94.835 M398.243,97.516
					c-1.325,4.38,0.034,10.24,3.032,13.045l6.684,6.261l2.419-7.952c1.326-4.379-0.031-10.241-3.03-13.046l-6.684-6.263
					L398.243,97.516z M449.333,95.245c-3.337,3.12-5.09,8.882-3.9,12.804l2.663,8.772l6.069-5.683
					c3.338-3.118,5.092-8.88,3.901-12.803l-2.663-8.774L449.333,95.245z M291.808,66.191c1.784,7.678,8.872,15.262,15.765,16.859
					l15.376,3.586l-3.246-13.95c-1.784-7.684-8.873-15.26-15.761-16.868l-15.385-3.574L291.808,66.191z M553.553,55.489
					c-7.674,1.782-15.261,8.872-16.859,15.762l-3.584,15.386l13.949-3.253c7.685-1.784,15.259-8.865,16.867-15.761l3.576-15.377
					L553.553,55.489z M331.249,53.566c-0.502,15.335,9.012,33.184,21.162,39.671l27.136,14.488l0.929-27.878
					c0.507-15.34-9.014-33.187-21.152-39.666l-27.148-14.496L331.249,53.566z M499.284,38.819
					c-13.539,7.233-24.242,24.399-23.78,38.161l1.02,30.753l24.604-13.146c13.542-7.226,24.237-24.387,23.779-38.149l-1.019-30.752
					L499.284,38.819z M372.82,14.897c-2.294,7.544,0.055,17.647,5.213,22.481l11.538,10.796l4.163-13.708
					c2.294-7.546-0.055-17.648-5.22-22.482l-11.53-10.797L372.82,14.897z M468.623,10.98c-5.752,5.384-8.778,15.308-6.721,22.081
					l4.59,15.114l10.456-9.792c5.763-5.385,8.78-15.31,6.727-22.082L479.08,1.188L468.623,10.98z M413.287,23.685
					c-8.107,13.028-8.785,33.24-1.51,44.932l16.256,26.119l14.743-23.678c8.107-13.028,8.788-33.247,1.513-44.932L428.033,0
					L413.287,23.685z"/>
			</defs>
			<clipPath id="SVGID_2_">
				<use xlink:href="#SVGID_1_"  overflow="visible"/>
			</clipPath>
			
				<linearGradient id="SVGID_3_" gradientUnits="userSpaceOnUse" x1="-0.3789" y1="864.3672" x2="0.6048" y2="864.3672" gradientTransform="matrix(206.3382 206.3382 206.3382 -206.3382 -177947.2031 178520.2344)">
				<stop  offset="0" style="stop-color:#E09E88"/>
				<stop  offset="0.44" style="stop-color:#EDC9BD"/>
				<stop  offset="0.4538" style="stop-color:#EBBDAE"/>
				<stop  offset="0.5" style="stop-color:#E39681"/>
				<stop  offset="0.5697" style="stop-color:#D78D79"/>
				<stop  offset="0.8565" style="stop-color:#A86A59"/>
				<stop  offset="1" style="stop-color:#965D4D"/>
			</linearGradient>
			<polygon clip-path="url(#SVGID_2_)" fill="url(#SVGID_3_)" points="428.031,-191.714 811.458,191.713 428.031,575.139 
				44.603,191.713 			"/>
		</g>
		<path fill-rule="evenodd" clip-rule="evenodd" fill="#E38280" d="M387.487,225.831c2.162-0.075,3.798-0.336,4.927-0.778
			c1.118-0.442,2-1.382,2.641-2.819c0.641-1.444,0.958-3.722,0.958-6.851v-46.004c0-4.488,0.163-8.095,0.478-10.811l-9.003,0.354
			v-9.252h34.477v7.932c-2.165,0.078-3.81,0.338-4.93,0.778c-1.119,0.441-2,1.384-2.641,2.829c-0.641,1.436-0.959,3.721-0.959,6.841
			v18.745h33.033v-17.415c0-5.368,0.16-8.975,0.479-10.811l-9.005,0.354v-9.252h34.473v7.932c-2.161,0.078-3.799,0.338-4.928,0.778
			c-1.118,0.441-1.998,1.384-2.641,2.829c-0.643,1.436-0.957,3.721-0.957,6.841v46.013c0,4.487-0.163,8.087-0.48,10.814
			c2.556-0.24,5.562-0.363,9.006-0.363v9.25h-34.473v-7.932c2.159-0.075,3.798-0.336,4.925-0.778
			c1.12-0.442,2.001-1.382,2.641-2.819c0.643-1.444,0.96-3.722,0.96-6.851v-19.46l-33.033,0.361v17.777
			c0,4.487-0.16,8.087-0.484,10.814c2.565-0.24,5.567-0.363,9.014-0.363v9.25h-34.477V225.831z"/>
	</g>
	<g>
		<path fill="#C98A82" d="M58.087,557.91l0.023-1.222h1.547c4.257,0,7.716-3.39,7.846-7.61v-31.263h-39.71v31.169
			c0.079,4.267,3.559,7.704,7.843,7.704h1.554l0.02,1.222H0l0.023-1.222h1.546c4.29,0,7.762-3.438,7.845-7.704v-67.887
			c-0.104-4.242-3.573-7.702-7.843-7.702H0.023l-0.018-1.221h37.199l-0.018,1.221h-1.552c-4.261,0-7.72,3.473-7.843,7.702v31.56
			h39.71v-31.56c-0.165-4.194-3.61-7.702-7.839-7.702h-1.55l-0.026-1.224h37.205l-0.018,1.224h-1.55
			c-4.29,0-7.768,3.431-7.841,7.702v67.885c0.081,4.269,3.557,7.703,7.841,7.703h1.55l0.018,1.225H58.087z M157.334,557.91h-37.205
			l0.018-1.225h1.548c4.291,0,7.766-3.435,7.848-7.703v-67.941c-0.105-4.236-3.573-7.646-7.844-7.646h-1.549l-0.019-1.224h37.203
			l-0.018,1.224h-1.552c-4.261,0-7.723,3.394-7.846,7.621v67.966c0.081,4.269,3.563,7.703,7.846,7.703h1.552L157.334,557.91z
			 M273.02,518.06c-3.962,0-6.189,1.998-6.106,5.552v20.239c-5.761,7.438-20.965,15.773-40.583,15.773
			c-27.809,0-46.317-17.149-46.317-44.723c0-27.315,18.138-44.431,47.03-44.431c13.471,0,26.583,2.969,33.778,6.634l0.239,21.013
			h-1.015c-4.612-16.636-16.231-22.485-29.3-22.492c-20.031,0-30.767,15.132-30.767,40.016c0,23.652,9.921,38.804,27.954,38.832
			c9.022-0.003,17.871-4.362,20.759-12.108V523.64c0.025-3.576-2.342-5.589-6.297-5.58h-1.931v-1.224h34.396v1.224H273.02z
			 M352.342,557.91l0.022-1.222h1.549c4.252,0,7.711-3.39,7.842-7.61v-31.263h-39.707v31.169c0.078,4.267,3.559,7.704,7.843,7.704
			h1.552l0.019,1.222h-37.207l0.018-1.222h1.55c4.289,0,7.764-3.438,7.844-7.704v-67.887c-0.104-4.242-3.571-7.702-7.842-7.702
			h-1.547l-0.021-1.221h37.203l-0.025,1.221h-1.545c-4.261,0-7.723,3.473-7.843,7.702v31.56h39.707v-31.56
			c-0.161-4.194-3.606-7.702-7.842-7.702h-1.545l-0.026-1.224h37.205l-0.016,1.224h-1.55c-4.289,0-7.767,3.431-7.845,7.702v67.885
			c0.081,4.269,3.559,7.703,7.845,7.703h1.55l0.016,1.225H352.342z M486.83,491.175l-1.24-0.018v-1.436
			c0.018-7.469-4.74-12.312-12.255-12.506h-16.45v71.865c0.132,4.225,3.589,7.607,7.845,7.607h1.546l0.021,1.226h-37.223
			l0.021-1.226h1.549c4.22,0,7.656-3.327,7.839-7.5v-71.973h-16.467c-7.514,0.194-12.267,5.037-12.26,12.506v1.436l-1.231,0.018
			v-21.344c2.26,0.952,9.246,2.165,14.518,2.228h49.266c5.266-0.063,12.254-1.275,14.517-2.228L486.83,491.175z M598.058,515.044
			c0,27.523-18.769,44.576-48.183,44.576c-29.417,0-48.18-17.053-48.18-44.576c0-27.519,18.763-44.577,48.18-44.577
			C579.289,470.467,598.058,487.525,598.058,515.044 M577.96,515.044c0-24.318-10.82-39.425-28.085-39.425
			c-17.266,0-28.086,15.106-28.086,39.425c0,24.326,10.82,39.429,28.086,39.429C567.14,554.473,577.96,539.37,577.96,515.044
			 M737.305,472.184v1.228h-1.078c-3.638,0-8.653,2.06-10.592,7.142l-20.571,65.955c0,0-2.493,7.633-2.156,13.606h-1.16
			l-26.718-59.132l-19.332,45.525c0,0-2.889,7.146-3.017,13.606h-1.157l-29.308-79.624c-2.242-5.041-6.905-7.079-10.53-7.079h-0.979
			v-1.228h37.357v1.212h-1.074c-3.166,0-6.342,2.765-4.741,7.665l15.067,42.496l22.224-53.294l1.138,0.041l24.373,53.798
			l12.221-43.085c1.345-4.898-1.248-7.621-4.659-7.621h-1.074v-1.212H737.305z M843.479,472.177l-0.022,1.226h-2.262
			c-4.096,0-7.423,3.257-7.559,7.323V544c0,9.229,1.415,15.624,1.415,15.624h-1.107l-61.89-58.926v48.604
			c0.098,4.094,3.444,7.386,7.562,7.386h2.262l0.019,1.226h-37.125l0.018-1.226h2.263c4.13,0,7.479-3.31,7.557-7.419v-63.623
			c0-9.106-1.424-15.299-1.424-15.299h1.21l61.784,58.901v-48.424c-0.077-4.111-3.428-7.423-7.559-7.423h-2.26l-0.019-1.222
			L843.479,472.177z M178.222,618.111c1.273-0.291,2.416-0.722,3.417-1.289c1.002-0.564,1.853-1.251,2.551-2.056
			c0.697-0.808,1.23-1.715,1.596-2.727c0.365-1.01,0.551-2.097,0.551-3.26c0-1.399-0.235-2.66-0.708-3.786
			c-0.476-1.125-1.211-2.087-2.198-2.881c-0.986-0.802-2.238-1.411-3.757-1.827c-1.519-0.42-3.32-0.633-5.402-0.633h-9.311v32.938
			h4.435v-13.744h3.378c0.634,0,1.097,0.079,1.392,0.239c0.3,0.158,0.581,0.427,0.841,0.79l8.55,11.77
			c0.385,0.634,0.981,0.945,1.792,0.945h3.958l-9.612-13.078C179.282,618.896,178.791,618.433,178.222,618.111 M174.089,615.607
			h-4.693v-12.438h4.875c2.576,0,4.507,0.495,5.795,1.494c1.284,0.993,1.928,2.476,1.928,4.437c0,0.967-0.172,1.842-0.504,2.643
			c-0.34,0.797-0.841,1.484-1.513,2.056c-0.66,0.577-1.489,1.021-2.476,1.338C176.512,615.451,175.379,615.607,174.089,615.607
			 M225.806,617.722h12.829v-3.494h-12.829v-10.946h15.838v-3.628h-20.299v32.938h20.299l0.023-3.631h-15.861V617.722z
			 M291.674,616.777c-0.743-0.642-1.583-1.173-2.528-1.6c-0.946-0.418-1.908-0.797-2.895-1.136
			c-0.992-0.336-1.954-0.662-2.897-0.979c-0.943-0.311-1.791-0.683-2.532-1.116c-0.743-0.427-1.339-0.943-1.791-1.549
			c-0.448-0.605-0.681-1.367-0.681-2.287c0-0.722,0.135-1.391,0.395-2.011c0.256-0.62,0.647-1.16,1.157-1.622
			c0.515-0.46,1.15-0.823,1.912-1.091c0.758-0.269,1.633-0.399,2.632-0.399c1.057,0,1.956,0.128,2.698,0.39
			c0.745,0.262,1.38,0.542,1.905,0.861c0.532,0.312,0.971,0.601,1.325,0.864c0.353,0.258,0.658,0.388,0.917,0.388
			c0.233,0,0.43-0.058,0.588-0.174c0.16-0.115,0.311-0.289,0.451-0.52l1.078-2.11c-1.152-1.104-2.478-1.943-3.989-2.53
			c-1.51-0.584-3.181-0.872-5.018-0.872c-1.644,0-3.094,0.253-4.358,0.757c-1.268,0.506-2.333,1.183-3.195,2.021
			c-0.871,0.845-1.529,1.811-1.979,2.902c-0.451,1.087-0.679,2.212-0.679,3.376c0,1.454,0.228,2.68,0.679,3.668
			c0.45,0.986,1.046,1.807,1.782,2.474c0.734,0.658,1.577,1.19,2.528,1.606c0.948,0.411,1.917,0.781,2.897,1.092
			c0.978,0.313,1.945,0.62,2.895,0.918c0.952,0.297,1.794,0.659,2.532,1.094c0.73,0.427,1.328,0.961,1.78,1.595
			c0.453,0.639,0.678,1.45,0.678,2.445c0,0.908-0.156,1.727-0.461,2.462c-0.309,0.733-0.743,1.367-1.322,1.901
			c-0.576,0.526-1.274,0.936-2.102,1.226c-0.823,0.295-1.77,0.436-2.83,0.436c-0.843,0-1.601-0.076-2.272-0.241
			c-0.674-0.156-1.278-0.365-1.81-0.607c-0.525-0.247-0.997-0.515-1.408-0.802c-0.416-0.297-0.781-0.565-1.104-0.81
			c-0.32-0.246-0.611-0.442-0.864-0.609c-0.253-0.156-0.479-0.242-0.674-0.242c-0.216,0-0.415,0.063-0.59,0.176
			c-0.177,0.117-0.327,0.258-0.446,0.425l-1.292,2.113c1.241,1.322,2.741,2.363,4.488,3.142c1.745,0.773,3.692,1.16,5.835,1.16
			c1.746,0,3.31-0.269,4.677-0.806c1.373-0.537,2.53-1.274,3.473-2.209c0.943-0.933,1.661-2.033,2.149-3.294
			c0.491-1.266,0.737-2.621,0.737-4.063c0-1.362-0.227-2.507-0.682-3.448C293.012,618.213,292.417,617.416,291.674,616.777
			 M328.003,632.591h4.458v-32.938h-4.458V632.591z M392.528,604.192c-1.424-1.448-3.138-2.567-5.136-3.358
			c-2.005-0.785-4.208-1.181-6.636-1.181h-12.295v32.938h12.295c2.428,0,4.631-0.392,6.636-1.18
			c1.998-0.794,3.711-1.907,5.136-3.349c1.424-1.437,2.53-3.167,3.311-5.191c0.785-2.028,1.173-4.27,1.173-6.735
			c0-2.476-0.388-4.717-1.173-6.734C395.058,607.373,393.952,605.637,392.528,604.192 M391.61,621.56
			c-0.548,1.594-1.336,2.938-2.344,4.034c-1.013,1.093-2.237,1.932-3.675,2.517c-1.445,0.584-3.057,0.87-4.835,0.87h-7.836V603.26
			h7.836c1.778,0,3.39,0.29,4.835,0.875c1.438,0.582,2.662,1.427,3.675,2.531c1.008,1.096,1.796,2.447,2.344,4.04
			c0.553,1.596,0.825,3.406,0.825,5.43C392.435,618.157,392.163,619.967,391.61,621.56 M435.467,617.722h12.829v-3.494h-12.829
			v-10.946h15.842v-3.628h-20.303v32.938h20.303l0.022-3.631h-15.864V617.722z M507.923,622.983c0,0.335,0.007,0.693,0.031,1.072
			c0.022,0.373,0.057,0.755,0.084,1.155l-19.06-24.801c-0.119-0.15-0.235-0.279-0.343-0.377c-0.104-0.104-0.216-0.176-0.322-0.23
			c-0.103-0.054-0.227-0.095-0.367-0.119c-0.137-0.018-0.306-0.03-0.506-0.03h-2.3v32.938h3.91V609.12
			c0-0.319-0.009-0.661-0.024-1.032c-0.015-0.365-0.041-0.74-0.068-1.125l19.058,24.825c0.229,0.293,0.458,0.499,0.698,0.62
			c0.234,0.126,0.534,0.183,0.887,0.183h2.23v-32.938h-3.908V622.983z M570.948,625.787c-0.26,0-0.523,0.116-0.783,0.35
			c-0.565,0.52-1.136,0.967-1.71,1.343c-0.576,0.374-1.197,0.682-1.862,0.929c-0.669,0.242-1.396,0.424-2.185,0.541
			c-0.792,0.116-1.673,0.172-2.654,0.172c-1.61,0-3.107-0.291-4.493-0.871c-1.389-0.588-2.592-1.433-3.609-2.544
			c-1.021-1.111-1.828-2.474-2.414-4.083c-0.592-1.606-0.887-3.435-0.887-5.487c0-2.023,0.282-3.839,0.854-5.451
			c0.563-1.606,1.358-2.971,2.373-4.091c1.023-1.116,2.237-1.972,3.646-2.563c1.41-0.591,2.966-0.886,4.667-0.886
			c1.41,0,2.599,0.146,3.564,0.451c0.965,0.295,1.768,0.632,2.412,0.999c0.647,0.37,1.164,0.698,1.564,1
			c0.396,0.299,0.733,0.451,1.009,0.451c0.248,0,0.444-0.054,0.589-0.152c0.146-0.102,0.261-0.23,0.354-0.385l1.473-2.04
			c-1.362-1.292-2.94-2.307-4.733-3.059c-1.8-0.748-3.866-1.125-6.206-1.125c-2.393,0-4.579,0.409-6.553,1.229
			c-1.981,0.818-3.671,1.974-5.093,3.461c-1.417,1.485-2.516,3.26-3.301,5.33c-0.779,2.072-1.167,4.346-1.167,6.831
			c0,2.478,0.373,4.759,1.125,6.825c0.746,2.071,1.807,3.841,3.173,5.319c1.358,1.479,3.007,2.63,4.941,3.45
			c1.928,0.821,4.077,1.23,6.435,1.23c2.727,0,5.054-0.436,6.978-1.315c1.924-0.87,3.557-2.087,4.905-3.649l-1.771-1.912
			C571.404,625.889,571.194,625.787,570.948,625.787 M610.574,617.722h12.829v-3.494h-12.829v-10.946h15.843v-3.628h-20.303v32.938
			h20.303l0.021-3.631h-15.864V617.722z M676.444,616.777c-0.743-0.642-1.588-1.173-2.532-1.6c-0.94-0.418-1.906-0.797-2.894-1.136
			c-0.99-0.336-1.95-0.662-2.896-0.979c-0.942-0.311-1.785-0.683-2.53-1.116c-0.742-0.427-1.343-0.943-1.785-1.549
			c-0.458-0.605-0.685-1.367-0.685-2.287c0-0.722,0.13-1.391,0.392-2.011c0.258-0.62,0.646-1.16,1.162-1.622
			c0.511-0.46,1.146-0.823,1.905-1.091c0.762-0.269,1.636-0.399,2.633-0.399c1.057,0,1.958,0.128,2.699,0.39
			c0.746,0.262,1.38,0.542,1.91,0.861c0.528,0.312,0.967,0.601,1.323,0.864c0.352,0.258,0.662,0.388,0.917,0.388
			c0.231,0,0.426-0.058,0.584-0.174c0.163-0.115,0.311-0.289,0.451-0.52l1.08-2.11c-1.15-1.104-2.478-1.943-3.983-2.53
			c-1.516-0.584-3.187-0.872-5.028-0.872c-1.641,0-3.09,0.253-4.354,0.757c-1.263,0.506-2.333,1.183-3.195,2.021
			c-0.869,0.845-1.524,1.811-1.977,2.902c-0.451,1.087-0.682,2.212-0.682,3.376c0,1.454,0.23,2.68,0.682,3.668
			c0.452,0.986,1.044,1.807,1.782,2.474c0.733,0.658,1.576,1.19,2.527,1.606c0.95,0.411,1.918,0.781,2.899,1.092
			c0.979,0.313,1.943,0.62,2.896,0.918c0.948,0.297,1.791,0.659,2.526,1.094c0.732,0.427,1.327,0.961,1.78,1.595
			c0.453,0.639,0.678,1.45,0.678,2.445c0,0.908-0.152,1.727-0.46,2.462c-0.308,0.733-0.746,1.367-1.316,1.901
			c-0.58,0.526-1.28,0.936-2.107,1.226c-0.828,0.295-1.77,0.436-2.826,0.436c-0.843,0-1.604-0.076-2.275-0.241
			c-0.678-0.156-1.278-0.365-1.809-0.607c-0.528-0.247-0.994-0.515-1.41-0.802c-0.418-0.297-0.783-0.565-1.104-0.81
			c-0.323-0.246-0.609-0.442-0.866-0.609c-0.247-0.156-0.478-0.242-0.674-0.242c-0.216,0-0.409,0.063-0.589,0.176
			c-0.175,0.117-0.326,0.258-0.442,0.425l-1.29,2.113c1.239,1.322,2.735,2.363,4.482,3.142c1.749,0.773,3.692,1.16,5.84,1.16
			c1.743,0,3.304-0.269,4.673-0.806c1.375-0.537,2.528-1.274,3.472-2.209c0.942-0.933,1.66-2.033,2.15-3.294
			c0.491-1.266,0.733-2.621,0.733-4.063c0-1.362-0.225-2.507-0.677-3.448C677.785,618.213,677.185,617.416,676.444,616.777
			 M712.479,612.871v7.661l129.406-3.832L712.479,612.871z M131.392,620.532v-7.661L1.989,616.7L131.392,620.532z"/>
	</g>
</g>
</svg>
