<?xml version="1.0" encoding="utf-8"?>
<!-- Generator: Adobe Illustrator 16.0.0, SVG Export Plug-In . SVG Version: 6.00 Build 0)  -->
<!DOCTYPE svg PUBLIC "-//W3C//DTD SVG 1.1//EN" "http://www.w3.org/Graphics/SVG/1.1/DTD/svg11.dtd">
<svg version="1.1" id="Layer_1" xmlns="http://www.w3.org/2000/svg" xmlns:xlink="http://www.w3.org/1999/xlink" x="0px" y="0px"
	 width="50px" height="39.422px" viewBox="0 0 50 39.422" enable-background="new 0 0 50 39.422" xml:space="preserve">
<g>
	<path fill="#FFCCCC" d="M31.721,33.585c-0.182-0.183-0.434-0.285-0.689-0.285s-0.51,0.104-0.689,0.285
		c-0.182,0.183-0.287,0.435-0.287,0.688c0,0.259,0.105,0.509,0.287,0.69c0.182,0.183,0.434,0.286,0.689,0.286
		c0.257,0,0.509-0.104,0.689-0.286c0.182-0.183,0.286-0.433,0.286-0.69C32.007,34.02,31.902,33.768,31.721,33.585 M43.723,33.585
		c-0.183-0.183-0.435-0.285-0.689-0.285c-0.258,0-0.51,0.104-0.69,0.285s-0.286,0.435-0.286,0.688c0,0.259,0.104,0.509,0.286,0.69
		c0.183,0.183,0.435,0.286,0.69,0.286s0.508-0.104,0.689-0.286s0.285-0.433,0.285-0.69C44.008,34.02,43.902,33.768,43.723,33.585
		 M21.417,11.145l-1.914-1.913c-0.381-0.381-0.998-0.381-1.379,0s-0.381,0.999,0,1.38l0.248,0.247H18.03h-0.014
		c-0.998,0-1.992,0.239-2.878,0.692c-1.247,0.638-2.735,0.636-3.98,0c-1.803-0.921-3.955-0.921-5.757,0
		c-1.246,0.636-2.734,0.638-3.98,0c-0.479-0.245-1.067-0.055-1.313,0.425c-0.246,0.479-0.055,1.068,0.425,1.313
		c1.803,0.921,3.954,0.921,5.756,0c1.247-0.637,2.734-0.637,3.981,0c0.901,0.46,1.889,0.691,2.878,0.691
		c0.989,0,1.977-0.231,2.878-0.691c0.613-0.313,1.3-0.478,1.994-0.478h0.008h0.344l-0.248,0.247c-0.381,0.382-0.381,0.999,0,1.38
		c0.191,0.19,0.441,0.286,0.69,0.286s0.499-0.096,0.689-0.286l1.914-1.913C21.798,12.144,21.798,11.527,21.417,11.145
		 M21.417,26.854l-1.971-1.97c-0.381-0.382-0.999-0.382-1.379,0c-0.381,0.38-0.381,0.998,0,1.38l0.306,0.305H18.03h-0.014
		c-0.998,0-1.992,0.238-2.878,0.691c-1.247,0.637-2.735,0.637-3.98,0c-1.803-0.92-3.955-0.92-5.756,0
		c-1.247,0.637-2.735,0.637-3.981,0c-0.479-0.244-1.067-0.056-1.313,0.426C-0.138,28.165,0.052,28.753,0.532,29
		c1.803,0.919,3.955,0.919,5.756,0c1.246-0.639,2.734-0.639,3.981-0.002c0.9,0.46,1.89,0.691,2.878,0.691
		c0.989,0,1.977-0.231,2.878-0.691c0.616-0.313,1.307-0.477,2.002-0.479h0.344l-0.305,0.307c-0.381,0.38-0.381,0.998,0,1.38
		c0.191,0.188,0.439,0.285,0.689,0.285s0.5-0.097,0.69-0.285l1.971-1.972C21.798,27.854,21.798,27.234,21.417,26.854 M21.417,19.02
		l-1.961-1.961c-0.381-0.381-0.999-0.381-1.38,0c-0.381,0.381-0.381,0.999,0,1.38l0.296,0.296H18.03h-0.014
		c-0.998,0-1.992,0.238-2.878,0.691c-1.247,0.636-2.735,0.636-3.98,0c-1.803-0.921-3.955-0.921-5.757,0
		c-1.246,0.636-2.734,0.636-3.98,0c-0.479-0.245-1.067-0.055-1.313,0.425c-0.246,0.479-0.055,1.067,0.425,1.313
		c1.803,0.921,3.954,0.921,5.756,0c1.246-0.637,2.734-0.637,3.981,0c0.9,0.459,1.89,0.691,2.878,0.691
		c0.989,0,1.977-0.231,2.878-0.691c0.616-0.314,1.307-0.479,2.002-0.479h0.344l-0.296,0.297c-0.381,0.381-0.381,1,0,1.379
		c0.19,0.19,0.44,0.287,0.69,0.287c0.249,0,0.499-0.096,0.69-0.287l1.961-1.963C21.798,20.02,21.798,19.401,21.417,19.02 M48.984,0
		H5.269C4.731,0,4.294,0.437,4.294,0.976v4.877c0,0.539,0.437,0.976,0.975,0.976c0.54,0,0.976-0.437,0.976-0.976V1.951h5.953v3.221
		c0,0.539,0.436,0.976,0.976,0.976c0.538,0,0.976-0.437,0.976-0.976V1.951h4.001v3.221c0,0.539,0.436,0.976,0.976,0.976
		c0.539,0,0.975-0.437,0.975-0.976V1.951h4.001v32.322c0,0.539,0.436,0.978,0.976,0.978c0.539,0,0.976-0.438,0.976-0.978V1.951h4
		v28.175c0,0.539,0.438,0.978,0.978,0.978c0.538,0,0.977-0.438,0.977-0.978V1.951h4v32.322c0,0.539,0.437,0.978,0.978,0.978
		c0.537,0,0.974-0.438,0.974-0.978V1.951h4.099v28.175c0,0.539,0.438,0.978,0.978,0.978c0.538,0,0.976-0.438,0.976-0.978V1.951h4
		v35.518H20.101v-3.244c0-0.539-0.437-0.976-0.975-0.976c-0.54,0-0.976,0.437-0.976,0.976v3.244h-4.001v-3.244
		c0-0.539-0.438-0.976-0.976-0.976c-0.54,0-0.976,0.437-0.976,0.976v3.244H6.245v-3.902c0-0.539-0.437-0.977-0.976-0.977
		c-0.538,0-0.975,0.438-0.975,0.977v4.879c0,0.539,0.437,0.978,0.975,0.978h43.715c0.537,0,0.976-0.438,0.976-0.978V0.976
		C49.96,0.437,49.521,0,48.984,0"/>
</g>
</svg>
