<?xml version="1.0" encoding="utf-8"?>
<!-- Generator: Adobe Illustrator 16.0.0, SVG Export Plug-In . SVG Version: 6.00 Build 0)  -->
<!DOCTYPE svg PUBLIC "-//W3C//DTD SVG 1.1//EN" "http://www.w3.org/Graphics/SVG/1.1/DTD/svg11.dtd">
<svg version="1.1" id="Layer_1" xmlns="http://www.w3.org/2000/svg" xmlns:xlink="http://www.w3.org/1999/xlink" x="0px" y="0px"
	 width="50px" height="41.572px" viewBox="0 0 50 41.572" enable-background="new 0 0 50 41.572" xml:space="preserve">
<g>
	<path fill="#FFCCCC" d="M9.06,23.799h16.881l0.885,2.774H8.175L9.06,23.799z M25.364,35.76H9.636v-7.593h15.728V35.76z
		 M7.083,28.168h0.959v8.392c0,0.438,0.356,0.797,0.797,0.797H26.16c0.441,0,0.798-0.357,0.798-0.797v-8.392h0.959
		c0.254,0,0.494-0.122,0.644-0.327c0.15-0.206,0.193-0.471,0.117-0.713l-1.395-4.369c-0.105-0.33-0.413-0.554-0.762-0.554H8.477
		c-0.346,0-0.654,0.225-0.76,0.554l-1.393,4.369C6.247,27.37,6.29,27.634,6.44,27.841C6.59,28.046,6.83,28.168,7.083,28.168
		 M45.718,17.836l-1.893-6.058h1.916l2.271,6.058H45.718z M45.496,39.979h-3.955V28.168h1.16c0.256,0,0.492-0.122,0.645-0.327
		c0.15-0.206,0.193-0.471,0.115-0.713l-1.393-4.369c-0.106-0.33-0.414-0.554-0.76-0.554h-8.359c-0.348,0-0.654,0.225-0.762,0.554
		l-1.392,4.369c-0.078,0.242-0.034,0.506,0.115,0.713c0.149,0.205,0.39,0.327,0.646,0.327h1.159v11.812H4.464V19.432h41.032V39.979z
		 M39.945,28.815h-5.635v-0.648h5.635V28.815z M32.646,26.573l0.886-2.774h7.194l0.883,2.774H32.646z M34.313,37.587h5.635v2.393
		h-5.635V37.587z M34.313,30.41h5.635v5.583h-5.635V30.41z M4.219,11.778h1.916l-1.893,6.058H1.948L4.219,11.778z M41.723,17.836
		l-1.514-6.058h1.945l1.894,6.058H41.723z M37.732,17.836l-1.137-6.058h1.969l1.516,6.058H37.732z M33.745,17.836l-0.759-6.058
		h1.988l1.137,6.058H33.745z M29.759,17.836l-0.378-6.058h1.999l0.757,6.058H29.759z M25.777,11.778h2.005l0.379,6.058h-2.384
		V11.778z M22.176,11.778h2.006v6.058h-2.385L22.176,11.778z M18.579,11.778h2L20.2,17.836h-2.378L18.579,11.778z M14.985,11.778
		h1.988l-0.757,6.058H13.85L14.985,11.778z M11.393,11.778h1.969l-1.135,6.058H9.879L11.393,11.778z M9.75,11.778l-1.514,6.058
		H5.912l1.893-6.058H9.75z M4.464,1.594h41.032v8.591H4.464V1.594z M49.908,18.354l-2.819-7.519V0.797
		C47.089,0.357,46.732,0,46.292,0H3.667C3.227,0,2.87,0.356,2.87,0.797v10.04l-2.818,7.519c-0.091,0.245-0.058,0.52,0.092,0.733
		c0.148,0.216,0.393,0.344,0.655,0.344h2.072v20.547H1.703c-0.44,0-0.797,0.356-0.797,0.797c0,0.439,0.356,0.797,0.797,0.797h46.554
		c0.44,0,0.798-0.356,0.798-0.797c0-0.439-0.357-0.797-0.798-0.797h-1.168V19.432h2.074c0.26,0,0.505-0.128,0.653-0.344
		C49.966,18.874,50.001,18.599,49.908,18.354 M42.563,7.626H7.397V4.152h35.164v3.474H42.563z M43.357,2.558H6.6
		c-0.44,0-0.797,0.356-0.797,0.797v5.067c0,0.44,0.357,0.798,0.797,0.798h36.757c0.44,0,0.797-0.356,0.797-0.798V3.355
		C44.154,2.915,43.799,2.558,43.357,2.558"/>
</g>
</svg>
