<?xml version="1.0" encoding="utf-8"?>
<!-- Generator: Adobe Illustrator 16.0.0, SVG Export Plug-In . SVG Version: 6.00 Build 0)  -->
<!DOCTYPE svg PUBLIC "-//W3C//DTD SVG 1.1//EN" "http://www.w3.org/Graphics/SVG/1.1/DTD/svg11.dtd">
<svg version="1.1" id="Layer_1" xmlns="http://www.w3.org/2000/svg" xmlns:xlink="http://www.w3.org/1999/xlink" x="0px" y="0px"
	 width="50px" height="50px" viewBox="0 0 50 50" enable-background="new 0 0 50 50" xml:space="preserve">
<path fill="#FFCCCC" d="M47.924,47.924H45.84V2.083h2.084V47.924z M41.673,41.673V28.129c0-0.574-0.466-1.041-1.041-1.041H26.046
	c-0.574,0-1.042,0.467-1.042,1.041v13.544H22.92V30.212c0-0.573-0.467-1.04-1.042-1.04H9.377c-0.575,0-1.042,0.467-1.042,1.04
	v11.461H6.251V20.836h5.208h14.586h17.711v20.836L41.673,41.673L41.673,41.673z M27.088,41.673V29.172h5.209v5.208
	c0,0.575,0.469,1.043,1.042,1.043c0.574,0,1.042-0.468,1.042-1.043v-5.208h5.209v12.501H27.088z M10.419,41.673V31.255h4.167v3.125
	c0,0.575,0.466,1.043,1.042,1.043c0.575,0,1.042-0.468,1.042-1.043v-3.125h4.167v10.418H10.419z M4.168,47.924H2.084V2.083h2.084
	V47.924z M12.502,6.25h5.209v5.21c0,0.575,0.466,1.042,1.042,1.042c0.576,0,1.041-0.467,1.041-1.042V6.25h5.21v12.503H12.502V6.25z
	 M48.967,0h-4.168c-0.574,0-1.042,0.467-1.042,1.042v17.712H27.088V5.209c0-0.576-0.467-1.042-1.042-1.042H11.46
	c-0.575,0-1.041,0.466-1.041,1.042v13.544H6.251V1.042C6.251,0.467,5.785,0,5.209,0H1.042C0.467,0,0,0.467,0,1.042v47.924
	c0,0.576,0.467,1.042,1.042,1.042h4.167c0.575,0,1.042-0.466,1.042-1.042v-5.209h3.125h12.501h4.167H40.63h3.125v5.209
	c0,0.576,0.468,1.042,1.042,1.042h4.168c0.575,0,1.041-0.466,1.041-1.042V1.042C50.008,0.467,49.542,0,48.967,0"/>
</svg>
