<?xml version="1.0" encoding="utf-8"?>
<!-- Generator: Adobe Illustrator 16.0.0, SVG Export Plug-In . SVG Version: 6.00 Build 0)  -->
<!DOCTYPE svg PUBLIC "-//W3C//DTD SVG 1.1//EN" "http://www.w3.org/Graphics/SVG/1.1/DTD/svg11.dtd">
<svg version="1.1" id="Layer_1" xmlns="http://www.w3.org/2000/svg" xmlns:xlink="http://www.w3.org/1999/xlink" x="0px" y="0px"
	 width="44.008px" height="50px" viewBox="0 0 44.008 50" enable-background="new 0 0 44.008 50" xml:space="preserve">
<path fill="#FFCCCC" d="M22.859,25.732l2.074-2.071l2.073,2.071l-2.073,2.07L22.859,25.732z M19.926,19.873L22,17.802l2.075,2.071
	L22,21.944L19.926,19.873z M16.991,25.732l2.074-2.071l2.074,2.071l-2.074,2.07L16.991,25.732z M22.005,30.859
	c-4.045,0-7.335-3.285-7.335-7.324s3.29-7.324,7.335-7.324c4.044,0,7.335,3.285,7.335,7.324S26.049,30.859,22.005,30.859
	 M32.377,15.249l1.039,1.036l2.072-2.071L31.34,10.07l-2.074,2.072l1.038,1.035l-2.153,2.149c-1.344-1.006-2.941-1.69-4.679-1.939
	v-3.035h1.467v-2.93h-5.867v2.93h1.466v3.035c-1.737,0.249-3.335,0.934-4.68,1.939l-2.151-2.149l1.037-1.035l-2.075-2.072
	L8.52,14.213l2.074,2.071l1.039-1.036l2.151,2.149c-1.007,1.342-1.693,2.938-1.942,4.673h-3.04v-1.465H5.868v5.858h2.934V25h3.039
	c0.25,1.734,0.935,3.332,1.942,4.673l-2.151,2.147l-1.039-1.034L8.52,32.857L12.669,37l2.075-2.07l-1.037-1.037l2.151-2.148
	c1.344,1.007,2.943,1.691,4.68,1.939v3.035H19.07v2.93h5.868v-2.93h-1.467v-3.035c1.736-0.248,3.335-0.934,4.679-1.939l2.152,2.148
	l-1.037,1.037L31.34,37l4.148-4.143l-2.074-2.071l-1.037,1.034l-2.151-2.147c1.008-1.341,1.692-2.938,1.942-4.673h3.039v1.464h2.934
	v-5.858h-2.934v1.465h-3.039c-0.25-1.735-0.936-3.331-1.942-4.673L32.377,15.249z M41.075,21.25c0,11.789-7.82,22.297-19.07,25.7
	c-11.25-3.403-19.071-13.911-19.071-25.7v-9.539c4.496-0.651,8.06-4.248,8.7-8.782h20.744c0.64,4.534,4.203,8.13,8.699,8.782v9.539
	H41.075z M44.008,21.25V8.886h-1.467c-4.043,0-7.334-3.329-7.334-7.42V0H8.802v1.465c0,4.091-3.291,7.42-7.335,7.42H0V21.25
	c0,13.225,8.759,24.971,21.602,28.635L22.005,50l0.403-0.115C35.129,46.257,44.008,34.593,44.008,21.25"/>
</svg>
