<?xml version="1.0" encoding="utf-8"?>
<!-- Generator: Adobe Illustrator 16.0.0, SVG Export Plug-In . SVG Version: 6.00 Build 0)  -->
<!DOCTYPE svg PUBLIC "-//W3C//DTD SVG 1.1//EN" "http://www.w3.org/Graphics/SVG/1.1/DTD/svg11.dtd">
<svg version="1.1" id="Layer_1" xmlns="http://www.w3.org/2000/svg" xmlns:xlink="http://www.w3.org/1999/xlink" x="0px" y="0px"
	 width="50px" height="41.146px" viewBox="0 0 50 41.146" enable-background="new 0 0 50 41.146" xml:space="preserve">
<g>
	<path fill="#FFCCCC" d="M28.779,20.649c6.095-6.216,12.189-12.434,18.281-18.652c0.842-0.858,1.01-1.409,0.512-1.768
		c-0.823-0.595-1.297,0.095-1.781,0.589c-6.207,6.327-12.41,12.659-18.609,18.995c-0.152,0.154-0.266,0.352-0.395,0.526
		c0.354,0.419,0.65,0.775,1.027,1.221C28.27,21.132,28.534,20.9,28.779,20.649 M39.873,41.115c0.354,0,0.752,0.08,1.052-0.054
		c0.304-0.135,0.702-0.479,0.71-0.743c0.01-0.276-0.341-0.681-0.635-0.821c-0.328-0.158-0.77-0.103-1.162-0.103
		c-10.172-0.003-20.346-0.003-30.52,0c-0.354,0-0.761-0.076-1.049,0.069c-0.334,0.169-0.563,0.545-0.838,0.832
		c0.286,0.27,0.53,0.626,0.869,0.778c0.297,0.133,0.697,0.04,1.052,0.041c5.047,0.001,10.095,0,15.143,0
		C29.62,41.116,34.746,41.117,39.873,41.115 M1.661,33.626c-1.196,0-1.679,0.256-1.66,0.857c0.019,0.598,0.53,0.872,1.687,0.872
		c15.265,0.002,30.529,0.002,45.794,0c0.274,0,0.613,0.077,0.813-0.052c0.324-0.207,0.768-0.551,0.771-0.845
		c0.006-0.268-0.461-0.636-0.797-0.791c-0.293-0.138-0.697-0.044-1.052-0.044c-7.532,0-15.065,0-22.602,0
		C16.964,33.625,9.312,33.624,1.661,33.626 M5.605,19.345c0.106,0.021,0.212,0.042,0.319,0.063c0.504-0.489,1.007-0.979,1.514-1.466
		c1.122-1.078,1.253-1.079,2.383,0.036c3.058,3.016,6.107,6.039,9.175,9.045c0.296,0.29,0.685,0.67,1.042,0.683
		c1.906,0.067,3.816,0.031,5.965,0.031c-0.438-0.47-0.689-0.756-0.958-1.024c-4.018-4.006-8.041-8.007-12.056-12.016
		c-1.02-1.019-1.01-1.278-0.005-2.326c0.527-0.549,1.052-1.103,1.703-1.784c-3.612-0.515-6.984-0.995-10.536-1.5
		C4.652,12.616,5.128,15.98,5.605,19.345 M8.413,19.264c-0.807,0.86-1.58,1.758-2.439,2.563c-0.298,0.28-0.85,0.509-1.213,0.429
		c-0.272-0.06-0.557-0.63-0.616-1.007c-0.474-3.074-0.897-6.156-1.335-9.234c-0.16-1.132-0.354-2.259-0.467-3.394
		c-0.12-1.203,0.232-1.51,1.407-1.344c4.133,0.586,8.268,1.159,12.395,1.781c0.446,0.067,1.096,0.356,1.2,0.687
		c0.107,0.339-0.253,0.928-0.56,1.275c-0.748,0.849-1.582,1.622-2.291,2.333c4.632,4.667,9.172,9.238,13.801,13.901
		c0.313-0.297,0.68-0.634,1.032-0.986c6.118-6.147,12.233-12.296,18.353-18.443c0.276-0.279,0.549-0.567,0.85-0.821
		c0.384-0.323,0.795-0.34,1.16,0.034c0.363,0.373,0.326,0.782,0.02,1.169c-0.173,0.215-0.371,0.409-0.564,0.604
		c-6.563,6.595-13.131,13.182-19.674,19.796c-0.638,0.645-1.289,0.909-2.184,0.892c-2.404-0.049-4.81-0.043-7.214-0.002
		c-0.775,0.013-1.331-0.243-1.871-0.785c-2.813-2.816-5.661-5.599-8.479-8.412c-0.332-0.331-0.557-0.77-0.831-1.159
		C8.731,19.182,8.573,19.224,8.413,19.264"/>
</g>
</svg>
