<?xml version="1.0" encoding="utf-8"?>
<!-- Generator: Adobe Illustrator 16.0.0, SVG Export Plug-In . SVG Version: 6.00 Build 0)  -->
<!DOCTYPE svg PUBLIC "-//W3C//DTD SVG 1.1//EN" "http://www.w3.org/Graphics/SVG/1.1/DTD/svg11.dtd">
<svg version="1.1" id="Layer_1" xmlns="http://www.w3.org/2000/svg" xmlns:xlink="http://www.w3.org/1999/xlink" x="0px" y="0px"
	 width="27.35px" height="50px" viewBox="0 0 27.35 50" enable-background="new 0 0 27.35 50" xml:space="preserve">
<g>
	<path fill="#FFCCCC" d="M23.271,2.01c-0.047-0.128-0.133-0.225-0.254-0.282c-0.162-0.076-0.234,0.071-0.319,0.155
		c-2.055,2.055-4.108,4.113-6.164,6.167c-0.147,0.148-0.209,0.253-0.028,0.435c0.18,0.18,0.285,0.128,0.435-0.023
		c2.05-2.061,4.104-4.117,6.155-6.175C23.172,2.21,23.273,2.142,23.271,2.01 M17.93,27.762c-0.047-0.027-0.093-0.058-0.139-0.085
		c-0.318,0.343-0.62,0.707-0.962,1.022c-0.297,0.273-0.414,0.563-0.412,0.975c0.016,4.584,0.01,9.168,0.013,13.752
		c0,0.152-0.051,0.317,0.043,0.469c0.169-0.03,0.242-0.168,0.333-0.273c0.759-0.889,1.121-1.928,1.123-3.092
		c0.004-4.129,0.001-8.256,0.001-12.385V27.762z M20.642,1.591c-3.537,0-6.959,0-10.384-0.001C9.94,1.59,9.712,1.752,9.5,1.967
		C7.688,3.785,5.873,5.6,4.064,7.42c-0.09,0.09-0.261,0.155-0.191,0.361c3.456,0,6.912-0.002,10.368,0.005
		c0.246,0.001,0.383-0.132,0.533-0.283c1.857-1.863,3.717-3.724,5.575-5.587C20.426,1.839,20.496,1.753,20.642,1.591 M17.205,25.965
		c0.115-0.083,0.17-0.113,0.212-0.156c1.882-1.886,3.759-3.774,5.645-5.656c0.264-0.264,0.33-0.569,0.329-0.928
		c-0.007-4.794-0.003-9.588-0.008-14.383c0-0.136,0.058-0.287-0.055-0.412c-0.037,0.018-0.073,0.023-0.093,0.045
		c-1.951,1.952-3.899,3.907-5.854,5.856c-0.158,0.158-0.176,0.332-0.176,0.53c0.004,0.634,0.001,1.268,0.001,1.902L17.205,25.965
		L17.205,25.965z M1.618,18.69c0,2.798-0.001,5.595,0.001,8.394c0,0.729,0.272,0.998,1.001,0.999c3.993,0.002,7.988,0.002,11.981,0
		c0.725-0.001,0.987-0.271,0.988-1.009c0.001-5.547,0.001-11.094,0-16.64c0-0.766-0.261-1.029-1.023-1.029
		c-3.96-0.002-7.922-0.002-11.883-0.001c-0.819,0-1.063,0.252-1.063,1.089C1.618,13.225,1.619,15.958,1.618,18.69 M14.811,37.09
		c0-2.293-0.009-4.586,0.01-6.879c0.003-0.414-0.126-0.518-0.523-0.516c-2.742,0.017-5.486,0.021-8.229-0.002
		c-0.466-0.004-0.562,0.152-0.562,0.582c0.016,4.359,0.012,8.719,0.007,13.076c0,0.408,0.03,0.813,0.093,1.213
		c0.34,2.223,2.628,4.021,4.834,3.807c2.612-0.257,4.366-2.198,4.369-4.842C14.814,41.384,14.813,39.236,14.811,37.09 M9.188,49.973
		c-1.441-0.328-2.724-0.947-3.709-2.084c-1.003-1.158-1.573-2.494-1.575-4.041C3.897,39.372,3.903,34.898,3.9,30.426
		c0-0.799,0.092-0.714-0.741-0.722C2.9,29.702,2.64,29.706,2.38,29.703c-1.364-0.02-2.373-1.018-2.375-2.373
		C0.001,21.62,0.006,15.909,0,10.2C0,9.509,0.24,8.93,0.72,8.448C3.278,5.881,5.84,3.317,8.398,0.75
		C8.737,0.408,9.149,0.194,9.578,0h13.638c1.292,0.48,1.812,1.404,1.803,2.785c-0.037,5.444-0.03,10.89-0.003,16.334
		c0.006,0.988-0.312,1.743-1.013,2.419c-1.391,1.342-2.732,2.733-4.106,4.091c-0.251,0.248-0.356,0.496-0.356,0.854
		c0.013,4.615-0.013,9.231,0.02,13.848c0.013,1.954-0.661,3.574-2.05,4.927c-0.732,0.714-1.473,1.423-2.163,2.177
		c-1.159,1.266-2.501,2.201-4.21,2.541H9.188V49.973z"/>
	<path fill="#FFCCCC" d="M24.941,28.602c0-0.256,0.001-0.517,0-0.774c-0.001-0.236-0.093-0.44-0.342-0.45
		c-0.281-0.009-0.375,0.208-0.378,0.463c-0.004,0.469,0.01,0.938-0.006,1.407c-0.01,0.278,0.061,0.403,0.372,0.407
		c0.329,0.002,0.374-0.156,0.358-0.42C24.933,29.023,24.942,28.813,24.941,28.602 M24.219,32.391c0,0.275,0.012,0.553-0.004,0.825
		c-0.014,0.257,0.089,0.341,0.34,0.334c0.237-0.004,0.403-0.018,0.392-0.329c-0.019-0.519-0.014-1.037,0-1.556
		c0.007-0.271-0.039-0.416-0.364-0.415c-0.318,0.001-0.385,0.139-0.367,0.411C24.231,31.904,24.219,32.146,24.219,32.391
		 M24.6,35.166c-0.606-0.014-1.16,0.531-1.155,1.143c0.003,0.588,0.526,1.121,1.117,1.135c0.603,0.014,1.161-0.539,1.157-1.146
		C25.714,35.709,25.193,35.178,24.6,35.166 M26.557,30.816c0,1.041,0.007,2.082-0.004,3.121c-0.004,0.273,0.066,0.49,0.232,0.713
		c0.871,1.176,0.714,2.731-0.354,3.707c-1.054,0.959-2.671,0.953-3.721-0.019c-1.054-0.973-1.199-2.537-0.32-3.707
		c0.171-0.229,0.217-0.45,0.217-0.718c-0.006-2.032-0.006-4.063-0.001-6.096c0.001-1.223,0.813-2.079,1.962-2.084
		c1.156-0.002,1.979,0.848,1.986,2.06C26.561,28.802,26.557,29.811,26.557,30.816"/>
	<path fill="#FFCCCC" d="M12.474,16.447c0-1.17-0.009-2.339,0.006-3.509c0.003-0.309-0.078-0.425-0.407-0.424
		c-2.317,0.013-4.636,0.012-6.954,0.001c-0.303-0.001-0.386,0.107-0.385,0.397c0.008,2.323,0.008,4.646,0,6.967
		c-0.001,0.289,0.078,0.4,0.383,0.399c2.318-0.01,4.637-0.012,6.955,0c0.326,0.001,0.413-0.11,0.408-0.422
		C12.465,18.721,12.474,17.584,12.474,16.447 M14.089,16.381c0,1.511,0.001,3.024-0.001,4.536c-0.001,0.703-0.271,0.973-0.972,0.973
		c-3.002,0.002-6.003,0.002-9.005,0c-0.718,0-0.988-0.276-0.988-1.011c-0.002-2.992-0.002-5.983,0-8.974c0.001-0.729,0.272-1,1-1
		c2.986-0.002,5.972-0.002,8.957,0c0.75,0,1.009,0.268,1.01,1.038C14.091,13.422,14.089,14.901,14.089,16.381"/>
	<path fill="#FFCCCC" d="M13.307,24.627c-0.011,1.102-0.88,1.952-1.994,1.947c-1.118-0.006-1.972-0.893-1.956-2.036
		c0.015-1.085,0.91-1.938,2.02-1.921C12.473,22.632,13.317,23.512,13.307,24.627"/>
	<path fill="#FFCCCC" d="M7.853,24.633c-0.012,1.102-0.886,1.948-1.999,1.941c-1.097-0.008-1.956-0.885-1.951-1.993
		c0.003-1.122,0.889-1.98,2.025-1.964C7.023,22.633,7.863,23.512,7.853,24.633"/>
</g>
</svg>
