<?xml version="1.0" encoding="utf-8"?>
<!-- Generator: Adobe Illustrator 16.0.0, SVG Export Plug-In . SVG Version: 6.00 Build 0)  -->
<!DOCTYPE svg PUBLIC "-//W3C//DTD SVG 1.1//EN" "http://www.w3.org/Graphics/SVG/1.1/DTD/svg11.dtd">
<svg version="1.1" id="Layer_1" xmlns="http://www.w3.org/2000/svg" xmlns:xlink="http://www.w3.org/1999/xlink" x="0px" y="0px"
	 width="50px" height="50px" viewBox="0 0 50 50" enable-background="new 0 0 50 50" xml:space="preserve">
<path fill="#FFCCCC" d="M42.159,21.951l-4.388-4.389c-0.275-0.276-0.631-0.403-0.984-0.403s-0.709,0.138-0.982,0.403l-4.389,4.389
	c-0.542,0.541-0.542,1.417,0,1.968c0.541,0.541,1.416,0.541,1.968,0l2.017-2.017v9.534c0,0.769,0.619,1.389,1.388,1.389
	s1.39-0.62,1.39-1.389v-9.534l2.016,2.017c0.541,0.541,1.416,0.541,1.968,0C42.701,23.377,42.701,22.5,42.159,21.951 M18.566,26.063
	c-0.541-0.541-1.417-0.541-1.968,0l-2.017,2.018v-9.534c0-0.767-0.619-1.387-1.387-1.387s-1.388,0.62-1.388,1.387v9.534L9.79,26.073
	c-0.541-0.542-1.417-0.542-1.968,0c-0.541,0.541-0.541,1.417,0,1.968l4.389,4.378c0.274,0.274,0.629,0.404,0.984,0.404
	s0.708-0.14,0.983-0.404l4.388-4.39C19.107,27.49,19.107,26.614,18.566,26.063 M45.979,47.197H26.378V2.775h19.59
	c0.679,0,1.229,0.55,1.229,1.23v41.963h0.01C47.207,46.646,46.654,47.197,45.979,47.197 M23.604,47.207H4.015
	c-0.68,0-1.23-0.553-1.23-1.229V4.014c0-0.679,0.551-1.229,1.23-1.229h19.589V47.207z M45.968,0H4.015C1.801,0,0,1.8,0,4.014v41.962
	c0,2.203,1.801,4.004,4.015,4.004h41.963c2.213,0,4.014-1.801,4.014-4.014V4.014C49.98,1.8,48.182,0,45.968,0"/>
</svg>
