<?xml version="1.0" encoding="utf-8"?>
<!-- Generator: Adobe Illustrator 16.0.0, SVG Export Plug-In . SVG Version: 6.00 Build 0)  -->
<!DOCTYPE svg PUBLIC "-//W3C//DTD SVG 1.1//EN" "http://www.w3.org/Graphics/SVG/1.1/DTD/svg11.dtd">
<svg version="1.1" id="Layer_1" xmlns="http://www.w3.org/2000/svg" xmlns:xlink="http://www.w3.org/1999/xlink" x="0px" y="0px"
	 width="50px" height="50px" viewBox="0 0 50 50" enable-background="new 0 0 50 50" xml:space="preserve">
<g>
	<path fill="#FFCCCC" d="M43.742,45.516c0,0.754-0.613,1.365-1.367,1.365H7.616c-0.754,0-1.367-0.611-1.367-1.365V17.253L24.996,3.5
		l18.746,13.753V45.516z M49.354,17.492L25.919,0.302c-0.55-0.403-1.298-0.403-1.848,0L0.639,17.492
		c-0.696,0.511-0.847,1.489-0.336,2.185c0.51,0.696,1.487,0.846,2.183,0.336l0.639-0.468v25.969c0,2.479,2.015,4.492,4.491,4.492
		h34.759c2.479,0,4.492-2.015,4.492-4.492V19.545l0.638,0.468c0.278,0.205,0.603,0.302,0.923,0.302c0.48,0,0.955-0.22,1.262-0.638
		C50.197,18.981,50.048,18.003,49.354,17.492 M24.996,37.505c-1.292,0-2.344-1.051-2.344-2.344s1.051-2.345,2.344-2.345
		c1.292,0,2.344,1.052,2.344,2.345S26.288,37.505,24.996,37.505 M29.415,30.74c-0.399,0-0.799-0.153-1.104-0.458
		c-0.886-0.886-2.063-1.372-3.313-1.372c-1.252,0-2.43,0.486-3.314,1.372c-0.61,0.61-1.6,0.61-2.209,0
		c-0.61-0.61-0.61-1.601,0-2.209c1.475-1.476,3.438-2.288,5.524-2.288c2.088,0,4.048,0.813,5.523,2.288
		c0.609,0.608,0.609,1.599,0,2.209C30.215,30.587,29.814,30.74,29.415,30.74 M33.279,26.874c-0.399,0-0.801-0.153-1.104-0.458
		c-1.917-1.919-4.467-2.975-7.18-2.975c-2.714,0-5.263,1.056-7.181,2.975c-0.609,0.609-1.599,0.609-2.209,0.001
		c-0.61-0.61-0.61-1.601,0-2.21c2.507-2.509,5.842-3.892,9.39-3.892c3.548,0,6.882,1.382,9.391,3.892c0.608,0.61,0.608,1.6,0,2.21
		C34.08,26.721,33.68,26.874,33.279,26.874"/>
</g>
</svg>
