<?xml version="1.0" encoding="utf-8"?>
<!-- Generator: Adobe Illustrator 16.0.0, SVG Export Plug-In . SVG Version: 6.00 Build 0)  -->
<!DOCTYPE svg PUBLIC "-//W3C//DTD SVG 1.1//EN" "http://www.w3.org/Graphics/SVG/1.1/DTD/svg11.dtd">
<svg version="1.1" id="Layer_1" xmlns="http://www.w3.org/2000/svg" xmlns:xlink="http://www.w3.org/1999/xlink" x="0px" y="0px"
	 width="47.811px" height="50px" viewBox="0 0 47.811 50" enable-background="new 0 0 47.811 50" xml:space="preserve">
<g>
	<path fill="#FFCCCC" d="M8.755,9.055c0.042,0.442,0.303,1.02,0.653,1.25c1.181,0.772,2.429,1.453,3.695,2.08
		c0.289,0.144,0.912,0.069,1.109-0.149c0.411-0.453,0.049-0.868-0.393-1.135c-0.733-0.444-1.454-0.922-2.228-1.285
		c-0.879-0.413-1.269-0.958-1.2-1.985c0.104-1.574,0.027-3.161,0.026-4.742c0-0.611,0.038-1.297-0.818-1.322
		S8.721,2.401,8.724,3.031C8.727,4.014,8.725,4.997,8.725,5.98C8.725,7.005,8.661,8.037,8.755,9.055 M9.688,1.442
		c4.487,0.041,8.081,3.632,8.091,8.087c0.011,4.539-3.6,8.169-8.125,8.168c-4.459-0.003-8.059-3.602-8.075-8.076
		C1.562,5.083,5.211,1.403,9.688,1.442 M19.35,9.636C19.378,4.377,15,0.005,9.699,0C4.35-0.006-0.005,4.294,0,9.578
		c0.004,5.249,4.299,9.534,9.577,9.551C14.964,19.147,19.321,14.916,19.35,9.636 M38,7.368c-0.021,0-0.044,0-0.065,0.001
		c-1.775,0.04-3.155,1.48-3.141,3.278c0.011,0.866,0.341,1.664,0.938,2.248c0.591,0.58,1.39,0.899,2.253,0.899
		c0.012,0,0.022,0,0.036,0c1.759-0.018,3.235-1.482,3.227-3.197c-0.004-0.837-0.371-1.671-1.007-2.29
		C39.623,7.708,38.812,7.368,38,7.368 M37.984,15.181c-1.229,0-2.371-0.459-3.226-1.295c-0.859-0.845-1.34-1.99-1.352-3.226
		C33.385,8.137,35.4,6.038,37.9,5.981c1.208-0.029,2.408,0.458,3.308,1.331c0.899,0.876,1.42,2.07,1.428,3.276
		c0.016,2.506-2.05,4.567-4.602,4.593C38.019,15.181,38.001,15.181,37.984,15.181 M36.545,44.132c2.98-0.069,5.158-1.45,6.37-4.188
		c1.54-3.477,3.039-6.971,4.548-10.459c0.59-1.365,0.43-2.131-0.5-2.506c-0.832-0.338-1.463,0.084-2.045,1.412
		c-1.471,3.365-2.979,6.717-4.378,10.113c-0.828,2.016-2.314,2.876-4.391,2.92c-1.502,0.031-3.005,0.01-4.509,0.012
		c-3.136,0-6.271,0.017-9.404-0.006c-1.032-0.008-1.524-0.451-1.496-1.193c0.029-0.735,0.563-1.172,1.519-1.221
		c0.301-0.018,0.602-0.006,0.902-0.007c3.865-0.006,7.731,0.03,11.595-0.03c2.438-0.039,4.443-0.943,5.494-3.311
		c1.596-3.592,3.166-7.193,4.737-10.797c0.136-0.309,0.353-0.69,0.271-0.962c-0.141-0.485-0.377-1.064-0.762-1.327
		c-0.526-0.358-1.182-0.177-1.595,0.373c-0.229,0.302-0.386,0.664-0.54,1.015c-1.398,3.165-2.888,6.295-4.143,9.516
		c-0.812,2.082-2.167,2.879-4.321,2.847c-3.864-0.06-7.729-0.017-11.594-0.001c-2.574,0.012-4.289,1.609-4.271,3.941
		c0.021,2.283,1.716,3.856,4.208,3.873c2.405,0.016,4.811,0,7.214,0C31.821,44.145,34.184,44.188,36.545,44.132 M11.822,34.773
		l-1.269,2.192c-1.5,2.593-3.001,5.183-4.498,7.777l-0.081,0.139c-0.198,0.343-0.386,0.664-0.51,0.984
		c-0.291,0.751-0.003,1.591,0.7,2.043c0.732,0.469,1.553,0.374,2.143-0.249c0.271-0.288,0.497-0.674,0.734-1.081
		c0.518-0.886,1.025-1.75,1.535-2.616c1.521-2.589,3.092-5.268,4.581-7.927c1.404-2.509,3.49-3.729,6.379-3.729
		c0.029,0,0.058,0,0.085,0c2.955,0.025,5.963,0.008,8.873-0.008l0.775-0.006c1.457-0.006,2.446-0.412,3.025-1.236
		c1.709-2.432,3.545-5.384,4.208-8.845c0.165-0.866,0.218-2.048-0.476-2.757c-0.697-0.713-1.889-0.688-2.767-0.543
		c-0.059,0.01-0.138,0.033-0.223,0.057c-0.066,0.021-0.138,0.04-0.206,0.056c-2.254,0.563-4.08,2.024-5.748,4.599
		c-0.642,0.992-1.193,2.041-1.778,3.151c-0.271,0.512-0.541,1.027-0.826,1.549c-0.197,0.357-0.613,0.541-1.011,0.439
		c-0.775-0.195-1.559-0.391-2.344-0.589c-1.939-0.485-3.944-0.985-5.929-1.502c-0.891-0.231-1.637-0.14-2.42,0.3
		c-2.437,1.365-4.927,2.729-7.335,4.047c-1.048,0.576-2.096,1.148-3.145,1.725l-0.171,0.095c-0.223,0.12-0.433,0.231-0.597,0.358
		c-0.594,0.453-0.838,0.978-0.744,1.599c0.113,0.761,0.521,1.236,1.287,1.499c0.525,0.18,0.981,0.023,1.741-0.371
		c1.15-0.596,2.304-1.188,3.456-1.779l1.293-0.666c0.128-0.099,0.279-0.162,0.443-0.183c0.282-0.032,0.563,0.067,0.761,0.272
		c0.196,0.205,0.291,0.498,0.244,0.779C11.985,34.506,11.919,34.652,11.822,34.773 M7.115,50.011c-0.654,0-1.316-0.192-1.925-0.581
		c-1.436-0.921-2.013-2.652-1.408-4.215c0.174-0.451,0.407-0.852,0.631-1.236l0.078-0.137c1.428-2.473,2.859-4.945,4.291-7.417
		c-0.712,0.366-1.425,0.732-2.137,1.103c-0.676,0.351-1.809,0.936-3.156,0.476c-1.414-0.483-2.273-1.5-2.488-2.938
		c-0.189-1.274,0.318-2.446,1.434-3.299c0.276-0.213,0.573-0.373,0.837-0.515l0.158-0.087c1.049-0.576,2.098-1.148,3.147-1.725
		c2.404-1.316,4.89-2.68,7.319-4.041c1.186-0.667,2.416-0.819,3.757-0.471c1.974,0.513,3.976,1.013,5.912,1.499
		c0.558,0.14,1.112,0.278,1.665,0.416c0.163-0.304,0.322-0.606,0.479-0.905c0.605-1.148,1.177-2.233,1.861-3.292
		c1.933-2.984,4.1-4.69,6.825-5.369c0.049-0.013,0.098-0.027,0.146-0.042c0.123-0.035,0.263-0.075,0.421-0.101
		c2.357-0.394,3.67,0.359,4.354,1.061c0.685,0.7,1.404,2.024,0.958,4.359c-0.729,3.796-2.687,6.954-4.504,9.542
		c-0.926,1.317-2.438,1.992-4.494,2.004l-0.774,0.004c-2.915,0.018-5.929,0.033-8.896,0.01c-0.023,0-0.045,0-0.068,0
		c-2.208,0-3.735,0.893-4.806,2.808c-1.498,2.675-3.075,5.361-4.601,7.957c-0.507,0.865-1.016,1.729-1.521,2.597
		c-0.276,0.474-0.578,0.989-0.992,1.428C8.926,49.633,8.032,50.011,7.115,50.011"/>
</g>
</svg>
