<?xml version="1.0" encoding="utf-8"?>
<!-- Generator: Adobe Illustrator 16.0.0, SVG Export Plug-In . SVG Version: 6.00 Build 0)  -->
<!DOCTYPE svg PUBLIC "-//W3C//DTD SVG 1.1//EN" "http://www.w3.org/Graphics/SVG/1.1/DTD/svg11.dtd">
<svg version="1.1" id="Layer_1" xmlns="http://www.w3.org/2000/svg" xmlns:xlink="http://www.w3.org/1999/xlink" x="0px" y="0px"
	 width="50px" height="50px" viewBox="0 0 50 50" enable-background="new 0 0 50 50" xml:space="preserve">
<path fill="#FFCCCC" d="M9.671,24.996c0.002-1.917,1.353-3.568,3.231-3.951c0.041,1.778,1.512,3.185,3.288,3.145
	c1.72-0.039,3.104-1.423,3.144-3.145c1.878,0.382,3.229,2.034,3.232,3.951v2.418h-1.612V24.19h-1.612v3.224h-6.447V24.19h-1.611
	v3.224H9.671V24.996z M12.895,14.516c0-1.781,1.443-3.225,3.223-3.225c1.781,0,3.224,1.444,3.224,3.225v1.612
	c0,1.781-1.443,3.225-3.224,3.225c-1.78,0-3.223-1.443-3.223-3.225V14.516z M17.73,20.965c0,0.89-0.721,1.613-1.612,1.613
	c-0.89,0-1.611-0.723-1.611-1.613H17.73z M8.865,29.027h14.506c0.445,0,0.807-0.361,0.807-0.807v-3.226
	c-0.005-2.698-1.915-5.017-4.562-5.537c0.858-0.897,1.338-2.09,1.338-3.331v-1.612c0-2.672-2.165-4.837-4.836-4.837
	c-2.67,0-4.834,2.165-4.834,4.837v1.612c0,1.241,0.479,2.434,1.337,3.331c-2.647,0.52-4.557,2.838-4.562,5.537v3.226
	C8.059,28.666,8.42,29.027,8.865,29.027 M24.178,3.229h1.611v1.613h-1.611V3.229z M48.355,37.895c0,1.338-1.084,2.42-2.42,2.42
	h-1.228c-1.158-1.732-3.008-2.883-5.077-3.156c0.561-0.477,1.035-1.044,1.403-1.682h7.319v2.418H48.355z M44.325,48.375h-2.418
	V45.15h-1.612v3.225h-9.67V45.15h-1.611v3.225h-2.418v-4.031c0.004-3.113,2.526-5.64,5.641-5.644h6.447
	c3.114,0.004,5.639,2.528,5.643,5.644L44.325,48.375L44.325,48.375z M4.029,40.313c-1.335,0-2.417-1.082-2.417-2.418v-2.418h28.273
	c0.368,0.637,0.844,1.203,1.401,1.681c-2.065,0.274-3.915,1.424-5.076,3.155H4.029z M3.224,8.067c0-1.781,1.443-3.225,3.224-3.225
	h14.587c0.125,0.586,0.378,1.138,0.745,1.612H5.642c-0.446,0-0.806,0.361-0.806,0.806v24.186c0,0.443,0.36,0.807,0.806,0.807h23.372
	c0.002,0.545,0.072,1.086,0.213,1.613H3.224V8.067z M24.984,1.617c1.334,0,2.417,1.083,2.417,2.419c0,1.335-1.082,2.417-2.417,2.417
	c-1.336,0-2.418-1.083-2.418-2.417C22.566,2.7,23.647,1.617,24.984,1.617 M36.945,24.37c-0.975-0.24-1.995-0.24-2.971,0
	c0.346-0.82,1.291-1.206,2.11-0.859C36.475,23.674,36.782,23.982,36.945,24.37 M34.654,16.128h1.611
	c1.467,0.005,2.742,0.999,3.109,2.418h-7.832C31.912,17.127,33.188,16.134,34.654,16.128 M35.459,14.516
	c-0.889,0-1.609-0.722-1.609-1.613c0-0.89,0.721-1.612,1.609-1.612c0.893,0,1.613,0.722,1.613,1.612
	C37.072,13.794,36.352,14.516,35.459,14.516 M43.52,18.547h-2.49c-0.285-1.677-1.43-3.08-3.014-3.699
	c0.43-0.557,0.666-1.241,0.668-1.945c0-1.78-1.442-3.224-3.225-3.224c-1.777,0-3.223,1.444-3.223,3.224
	c0.002,0.704,0.238,1.388,0.668,1.945c-1.584,0.619-2.727,2.022-3.012,3.699H27.4V8.067H43.52V18.547z M25.789,30.641H6.447V8.067
	h19.342V30.641z M29.014,30.641H27.4V20.16H43.52v10.48h-1.611c-0.002-2.306-1.234-4.433-3.229-5.582
	c0-0.021,0.004-0.042,0.004-0.063c0-1.781-1.442-3.225-3.225-3.225c-1.777,0-3.223,1.444-3.223,3.225
	c0,0.021,0.004,0.042,0.007,0.063C30.248,26.208,29.018,28.335,29.014,30.641 M35.459,37.089c-2.668-0.002-4.832-2.167-4.834-4.837
	v-1.611c0-2.673,2.164-4.838,4.834-4.838c2.672,0,4.836,2.166,4.836,4.838v1.611C40.293,34.922,38.13,37.087,35.459,37.089
	 M46.742,8.067v25.798h-5.049c0.141-0.527,0.213-1.068,0.214-1.613h2.418c0.444,0,0.807-0.361,0.807-0.807V7.26
	c0-0.445-0.362-0.806-0.807-0.806H28.188c0.365-0.474,0.621-1.025,0.746-1.612H43.52C45.299,4.842,46.742,6.286,46.742,8.067
	 M49.16,33.865h-0.805V8.067c-0.004-2.67-2.168-4.834-4.836-4.837H28.934c-0.445-2.181-2.57-3.591-4.75-3.148
	c-1.586,0.322-2.826,1.562-3.148,3.148H6.447C3.778,3.232,1.615,5.396,1.612,8.067v25.798H0.806C0.361,33.865,0,34.225,0,34.671
	v3.224c0.002,2.227,1.805,4.028,4.029,4.031h21.377c-0.279,0.775-0.421,1.594-0.423,2.418v4.838c0,0.444,0.36,0.807,0.805,0.807
	h19.343c0.444,0,0.805-0.361,0.805-0.807v-4.838c-0.002-0.824-0.145-1.643-0.422-2.418h0.422c2.227-0.003,4.027-1.806,4.03-4.031
	v-3.224C49.967,34.225,49.605,33.865,49.16,33.865"/>
</svg>
