<?xml version="1.0" encoding="utf-8"?>
<!-- Generator: Adobe Illustrator 16.0.0, SVG Export Plug-In . SVG Version: 6.00 Build 0)  -->
<!DOCTYPE svg PUBLIC "-//W3C//DTD SVG 1.1//EN" "http://www.w3.org/Graphics/SVG/1.1/DTD/svg11.dtd">
<svg version="1.1" id="Layer_1" xmlns="http://www.w3.org/2000/svg" xmlns:xlink="http://www.w3.org/1999/xlink" x="0px" y="0px"
	 width="44.211px" height="50px" viewBox="0 0 44.211 50" enable-background="new 0 0 44.211 50" xml:space="preserve">
<g>
	<path fill="#FFCCCC" d="M16.895,46.402c0.468,0,0.936,0.002,1.402-0.006c0.408-0.008,0.73-0.318,0.755-0.715
		c0.025-0.39-0.264-0.744-0.662-0.804c-0.11-0.017-0.225-0.011-0.337-0.011c-3.976-0.001-7.952-0.006-11.927,0.004
		c-0.281,0-0.44-0.102-0.547-0.335c-0.05-0.109-0.105-0.224-0.13-0.339c-0.113-0.541-0.112-1.086-0.019-1.627
		c0.03-0.176,0.112-0.344,0.185-0.51c0.081-0.184,0.223-0.268,0.433-0.266C6.776,41.802,7.504,41.8,8.231,41.8
		c2.901,0,5.802-0.002,8.704-0.003c0.411-0.001,0.802-0.095,1.102-0.386c0.221-0.213,0.445-0.449,0.583-0.72
		c0.603-1.18,0.596-2.414,0.147-3.629c-0.383-1.035-1.014-1.414-2.114-1.414c-3.507,0-7.015-0.004-10.522,0.006
		c-0.291,0-0.458-0.11-0.563-0.357c-0.267-0.619-0.267-1.244-0.034-1.872c0.108-0.289,0.288-0.42,0.628-0.418
		c3.534,0.015,7.068,0,10.601,0.015c0.905,0.004,1.509-0.414,1.907-1.188c0.348-0.675,0.437-1.402,0.369-2.148
		c-0.054-0.584-0.213-1.144-0.554-1.631c-0.396-0.57-0.923-0.881-1.64-0.878c-3.569,0.009-7.137,0.001-10.705,0.013
		c-0.291,0-0.458-0.104-0.568-0.351C5.549,26.784,5.517,26.73,5.5,26.674C5.313,26,5.301,25.32,5.494,24.648
		c0.129-0.45,0.266-0.527,0.729-0.527c3.525,0,7.05-0.002,10.575,0.004c0.528,0.001,1.006-0.122,1.37-0.508
		c0.222-0.235,0.417-0.514,0.559-0.805c0.371-0.758,0.388-1.578,0.295-2.393c-0.045-0.398-0.15-0.806-0.313-1.171
		c-0.379-0.845-1.01-1.298-1.992-1.292c-3.525,0.024-7.051,0.005-10.576,0.017c-0.307,0.001-0.479-0.122-0.582-0.373
		c-0.256-0.63-0.266-1.265-0.004-1.897c0.109-0.265,0.284-0.384,0.598-0.383c3.578,0.012,7.155,0.005,10.732,0.01
		c0.661,0,1.191-0.26,1.546-0.801c0.829-1.264,0.837-2.596,0.188-3.928c-0.368-0.754-1-1.118-1.869-1.114
		C12.792,9.503,8.834,9.495,4.875,9.496c-0.129,0-0.261,0.001-0.388,0.021c-0.378,0.058-0.66,0.381-0.664,0.75
		c-0.003,0.356,0.265,0.685,0.629,0.752c0.135,0.025,0.275,0.03,0.413,0.031c3.958,0.001,7.916,0.003,11.875-0.007
		c0.302-0.001,0.476,0.11,0.582,0.369c0.271,0.664,0.274,1.332,0.003,1.996c-0.112,0.275-0.293,0.396-0.617,0.396
		c-3.577-0.012-7.154-0.007-10.731-0.01c-0.273,0-0.535,0.033-0.783,0.154c-0.352,0.172-0.632,0.428-0.831,0.762
		c-0.628,1.052-0.705,2.165-0.292,3.299c0.398,1.091,1.026,1.494,2.19,1.494c3.508,0,7.015,0.002,10.523-0.004
		c0.232,0,0.38,0.083,0.482,0.275c0.044,0.083,0.086,0.17,0.116,0.26c0.203,0.61,0.189,1.234,0.052,1.848
		c-0.135,0.612-0.291,0.706-0.91,0.706c-3.551,0-7.102,0.003-10.653,0c-0.384-0.001-0.712,0.125-1.008,0.353
		c-0.337,0.261-0.571,0.601-0.738,0.99c-0.295,0.687-0.337,1.411-0.295,2.144c0.037,0.633,0.188,1.231,0.551,1.764
		c0.392,0.576,0.909,0.884,1.632,0.882c3.569-0.014,7.137-0.002,10.706-0.014c0.313-0.001,0.481,0.127,0.6,0.387
		c0.197,0.432,0.228,0.885,0.18,1.348c-0.031,0.297-0.105,0.578-0.273,0.832c-0.099,0.148-0.221,0.225-0.409,0.216
		c-0.303-0.013-0.606-0.003-0.909-0.003c-3.3,0-6.6,0.007-9.899-0.008c-0.693-0.002-1.194,0.289-1.584,0.826
		c-0.384,0.529-0.539,1.135-0.584,1.777c-0.056,0.813,0.102,1.572,0.563,2.251c0.384,0.563,0.907,0.87,1.619,0.86
		c1.558-0.02,3.117-0.008,4.675-0.008c2.027,0,4.054,0.006,6.08-0.002c0.259-0.002,0.409,0.102,0.512,0.312
		c0.053,0.106,0.099,0.222,0.134,0.338c0.134,0.446,0.125,0.91,0.071,1.367c-0.032,0.26-0.124,0.517-0.213,0.768
		c-0.079,0.22-0.252,0.291-0.492,0.291c-3.153-0.008-6.306-0.007-9.458-0.007c-0.484-0.001-0.969-0.021-1.451,0.008
		c-0.89,0.055-1.421,0.6-1.758,1.376c-0.269,0.617-0.327,1.271-0.303,1.935c0.022,0.584,0.113,1.158,0.397,1.682
		c0.396,0.727,0.954,1.169,1.842,1.159c1.991-0.022,3.984-0.009,5.976-0.009C13.655,46.402,15.275,46.402,16.895,46.402
		 M32.183,46.398c2.043,0,4.088-0.002,6.132,0.002c0.391,0.002,0.729-0.121,1.035-0.354c0.304-0.23,0.523-0.527,0.688-0.867
		c0.221-0.459,0.326-0.947,0.351-1.455c0.03-0.688,0.017-1.373-0.253-2.021c-0.338-0.814-0.946-1.473-2.1-1.463
		c-3.543,0.029-7.086,0.009-10.627,0.016c-0.222,0-0.365-0.074-0.455-0.27c-0.056-0.127-0.115-0.252-0.154-0.385
		c-0.135-0.449-0.121-0.908-0.07-1.367c0.023-0.219,0.089-0.438,0.163-0.649c0.101-0.274,0.278-0.407,0.608-0.405
		c3.576,0.014,7.154,0.004,10.73,0.012c0.645,0.002,1.137-0.262,1.516-0.76c0.791-1.037,0.871-2.836,0.182-3.939
		c-0.412-0.663-0.967-1.057-1.795-1.018c-0.795,0.036-1.59,0.012-2.385,0.012c-2.765-0.002-5.527-0.006-8.289,0.002
		c-0.254,0-0.412-0.092-0.517-0.309c-0.332-0.699-0.329-1.406-0.028-2.111c0.107-0.25,0.282-0.365,0.586-0.364
		c3.596,0.013,7.189,0.006,10.783,0.011c0.549,0.001,0.988-0.206,1.35-0.609c0.269-0.306,0.451-0.653,0.576-1.037
		c0.199-0.613,0.207-1.244,0.18-1.879c-0.021-0.472-0.125-0.928-0.335-1.354c-0.396-0.798-0.978-1.266-1.937-1.258
		c-3.203,0.026-6.408,0.01-9.613,0.01c-0.33,0-0.657,0.012-0.986,0.005c-0.407-0.008-0.555-0.138-0.682-0.533
		c-0.162-0.499-0.153-1.007-0.107-1.518c0.027-0.307,0.104-0.596,0.282-0.853c0.086-0.124,0.19-0.186,0.347-0.186
		c1.402,0,2.807-0.005,4.208-0.005c2.243,0,4.486,0.002,6.729,0.008c0.646,0.002,1.146-0.289,1.485-0.808
		c0.761-1.157,0.817-2.395,0.269-3.644c-0.372-0.848-1.021-1.278-2.006-1.27c-3.517,0.029-7.031,0.006-10.549,0.019
		c-0.306,0-0.475-0.119-0.584-0.369c-0.291-0.67-0.283-1.347-0.012-2.02c0.1-0.243,0.262-0.404,0.557-0.366
		c0.127,0.016,0.26,0.001,0.391,0.001c3.818,0,7.64,0,11.458-0.001c0.155,0,0.313-0.004,0.465-0.03
		c0.571-0.096,0.815-0.782,0.446-1.23c-0.184-0.223-0.428-0.281-0.694-0.284C39.19,9.498,38.86,9.5,38.531,9.5
		c-3.706,0-7.413,0.005-11.12-0.004c-0.756-0.002-1.313,0.31-1.714,0.934c-0.479,0.751-0.587,1.583-0.505,2.448
		c0.057,0.585,0.227,1.138,0.577,1.62c0.39,0.538,0.896,0.838,1.583,0.837c3.585-0.007,7.172,0,10.758-0.01
		c0.27-0.002,0.428,0.1,0.529,0.324c0.29,0.642,0.295,1.292,0.031,1.942c-0.105,0.261-0.284,0.385-0.599,0.384
		c-3.567-0.012-7.138-0.007-10.706-0.006c-0.129,0-0.261,0.002-0.387,0.024c-0.729,0.127-1.188,0.599-1.463,1.238
		c-0.5,1.16-0.501,2.353-0.04,3.52c0.358,0.912,1.028,1.389,2.065,1.381c3.524-0.024,7.051-0.007,10.576-0.016
		c0.269,0,0.426,0.102,0.525,0.329c0.051,0.119,0.105,0.239,0.135,0.364c0.115,0.506,0.098,1.016,0.038,1.525
		c-0.017,0.145-0.073,0.284-0.125,0.423c-0.11,0.295-0.291,0.437-0.644,0.437c-3.561-0.014-7.119-0.004-10.68-0.014
		c-0.716,0-1.246,0.303-1.638,0.881c-0.751,1.111-0.759,2.934-0.015,4.049c0.396,0.597,0.939,0.918,1.675,0.912
		c1.334-0.011,2.668-0.004,4.002-0.004c2.252,0,4.504,0.004,6.756-0.004c0.233,0,0.388,0.086,0.472,0.287
		c0.077,0.189,0.159,0.387,0.192,0.588c0.083,0.486,0.06,0.969-0.16,1.424c-0.11,0.229-0.258,0.355-0.541,0.349
		c-0.71-0.021-1.42-0.007-2.131-0.007c-2.919,0-5.837,0-8.757,0c-0.303,0-0.581,0.078-0.838,0.234
		c-0.359,0.217-0.613,0.53-0.811,0.895c-0.445,0.814-0.451,1.697-0.38,2.586c0.043,0.542,0.208,1.053,0.507,1.512
		c0.398,0.612,0.947,0.93,1.693,0.93c3.551-0.009,7.104,0,10.652-0.012c0.334-0.001,0.517,0.119,0.633,0.412
		c0.242,0.611,0.203,1.24,0.115,1.87c-0.023,0.168-0.101,0.331-0.17,0.489c-0.096,0.217-0.254,0.305-0.511,0.305
		c-3.741-0.009-7.483-0.007-11.226-0.007c-0.33,0-0.658-0.011-0.987,0.002c-0.313,0.011-0.539,0.172-0.668,0.46
		c-0.125,0.279-0.078,0.54,0.103,0.781c0.17,0.23,0.41,0.293,0.687,0.293c2.054-0.004,4.104-0.002,6.158-0.002v-0.004H32.183z
		 M39.148,5.41c-0.241-1.233-0.823-2.206-1.788-2.94c-0.873-0.665-1.865-0.941-2.962-0.94c-7.085,0.007-14.169,0.005-21.253,0.003
		c-0.745,0-1.49-0.021-2.234-0.019C10.313,1.515,9.709,1.485,9.12,1.563C7.564,1.768,6.379,2.569,5.591,3.935
		C5.332,4.386,5.156,4.871,5.088,5.41H39.148z M1.543,48.449h19.79V6.953c-0.138,0-0.239,0-0.341,0c-1.273,0-2.546-0.001-3.82-0.002
		C12.928,6.948,8.685,6.944,4.44,6.944c-0.404,0-0.809-0.008-1.209,0.107C2.267,7.328,1.517,8.329,1.537,9.299
		c0.021,1.084,0.006,2.168,0.006,3.252c0,5.802,0,11.605,0,17.407c0,6.053,0,12.106,0,18.159V48.449z M22.889,6.95v41.495h19.794
		c0-0.121,0-0.223,0-0.324c-0.002-1.475-0.005-2.948-0.005-4.422c0-4.764,0.002-9.524,0.002-14.286
		c0.001-5.62,0.002-11.24,0.003-16.86c0.001-0.911,0.007-1.821,0.008-2.732c0-0.268,0.022-0.541-0.019-0.805
		c-0.195-1.235-1.172-2.062-2.424-2.063C34.565,6.951,28.885,6.951,23.202,6.95C23.109,6.95,23.017,6.95,22.889,6.95 M22.115,50
		c-2.953,0-5.907-0.002-8.86,0c-4.123,0.002-8.246,0.001-12.369,0.012C0.271,50.014-0.001,49.596,0,49.132
		c0.013-4.788,0.01-9.575,0.01-14.362c0-4.563-0.003-9.123-0.003-13.686c0-3.911,0.015-7.822-0.001-11.734
		c-0.007-1.905,1.375-3.58,3.278-3.88c0.169-0.027,0.243-0.09,0.273-0.273c0.416-2.505,2.316-4.535,4.741-5.048
		C8.736,0.056,9.19,0.01,9.637,0.009c3.863-0.01,7.726-0.005,11.589-0.006C25.644,0.002,30.061,0,34.479,0
		c2.297,0,4.055,1.005,5.318,2.9c0.471,0.701,0.746,1.486,0.867,2.319c0.026,0.178,0.103,0.226,0.258,0.253
		c1.338,0.235,2.311,0.958,2.914,2.182c0.27,0.548,0.379,1.128,0.379,1.733c0,5.151-0.002,10.304-0.004,15.455
		c0,5.793,0.002,11.588,0.002,17.381c0,2.271-0.014,4.543,0.008,6.815c0.007,0.584-0.287,0.974-0.98,0.97
		C39.36,49.99,35.48,50,31.6,50H22.115z"/>
</g>
</svg>
